<?xml version="1.0" encoding="UTF-8"?>
<svg version="1.1" xmlns="http://www.w3.org/2000/svg" width="800" height="365">
<path d="M0 0 C28.58239564 -0.73054046 55.89059256 8.83602327 77.73046875 27.15625 C78.50132812 27.78660156 79.2721875 28.41695312 80.06640625 29.06640625 C91.27941738 38.49650565 99.46714399 50.55096093 106.73046875 63.15625 C107.28089844 64.10757813 107.83132813 65.05890625 108.3984375 66.0390625 C116.4143316 81.49387117 119.02647373 100.88224499 118.73046875 118.15625 C117.73046875 119.15625 117.73046875 119.15625 115.23022461 119.26977539 C114.14620361 119.26453857 113.06218262 119.25930176 111.9453125 119.25390625 C110.19057617 119.24907227 110.19057617 119.24907227 108.40039062 119.24414062 C107.16869141 119.23576172 105.93699219 119.22738281 104.66796875 119.21875 C102.81461914 119.21198242 102.81461914 119.21198242 100.92382812 119.20507812 C97.85932758 119.19324608 94.79492154 119.17676173 91.73046875 119.15625 C91.6325 118.03089844 91.53453125 116.90554687 91.43359375 115.74609375 C90.46687477 105.50066899 88.83336752 96.00219735 85.73046875 86.15625 C85.41722656 85.08117187 85.10398437 84.00609375 84.78125 82.8984375 C79.25548394 66.17734615 65.63204852 51.15478851 50.73046875 42.15625 C49.83714844 41.58003906 48.94382812 41.00382812 48.0234375 40.41015625 C28.92381798 28.52083486 5.63430729 26.29624303 -16.30859375 30.4140625 C-40.10849398 36.3797367 -58.76635817 52.22682965 -71.95703125 72.53125 C-82.74604402 91.64465257 -85.33739118 116.0002317 -79.515625 137 C-79.10496805 138.38681936 -78.68962449 139.77225985 -78.26953125 141.15625 C-78.07117676 141.83429688 -77.87282227 142.51234375 -77.66845703 143.2109375 C-74.63494468 153.28885919 -69.98946913 161.01278796 -63.46484375 169.2421875 C-61.26953125 172.15625 -61.26953125 172.15625 -61.26953125 174.15625 C-60.71136719 174.383125 -60.15320313 174.61 -59.578125 174.84375 C-56.6237254 176.52340865 -54.69574558 178.71270391 -52.33203125 181.15625 C-36.96418055 195.9867805 -14.04706193 201.63488287 6.66796875 202.71875 C9.32859375 202.863125 11.98921875 203.0075 14.73046875 203.15625 C14.73046875 211.73625 14.73046875 220.31625 14.73046875 229.15625 C-6.8514539 229.63057797 -23.56773045 227.81765129 -43.26953125 219.15625 C-44.46320313 218.65867188 -45.656875 218.16109375 -46.88671875 217.6484375 C-60.17411284 211.78725443 -72.19475656 202.25415278 -81.5390625 191.19921875 C-82.71979622 189.80525998 -83.92702126 188.43341937 -85.15625 187.08203125 C-88.61859128 183.27127827 -91.10295273 179.86620331 -93.26953125 175.15625 C-94.21667218 173.58694025 -95.17636175 172.02517438 -96.14453125 170.46875 C-111.12992389 145.46836723 -112.53233319 116.26308235 -107.26953125 88.15625 C-107.14094727 87.46853516 -107.01236328 86.78082031 -106.87988281 86.07226562 C-104.68536226 75.02707057 -99.88809955 65.77617985 -94.26953125 56.15625 C-93.64433594 55.07601562 -93.01914062 53.99578125 -92.375 52.8828125 C-89.37269131 47.93544152 -86.23839924 43.76829297 -82.00390625 39.82421875 C-80.1869048 38.07678718 -78.6233421 36.224916 -77.01953125 34.28125 C-60.05290673 14.70146232 -33.46996926 3.56673159 -8.14453125 0.40625 C-5.4312538 0.22384479 -2.71643209 0.12981754 0 0 Z " fill="#2087FA" transform="translate(396.26953125,0.84375)"/>
<path d="M0 0 C6.27 0 12.54 0 19 0 C19.33 0.99 19.66 1.98 20 3 C20.66 3 21.32 3 22 3 C23.40454102 4.97192383 23.40454102 4.97192383 25.00390625 7.70703125 C25.57947266 8.68607422 26.15503906 9.66511719 26.74804688 10.67382812 C27.34681641 11.70958984 27.94558594 12.74535156 28.5625 13.8125 C29.16513672 14.83666016 29.76777344 15.86082031 30.38867188 16.91601562 C34.8514332 24.5542996 34.8514332 24.5542996 36 28 C40.36893935 24.28021909 42.751127 19.50223228 45.5 14.5625 C46.44388917 12.8740443 47.39170915 11.18777906 48.34375 9.50390625 C48.75818359 8.75955322 49.17261719 8.0152002 49.59960938 7.24829102 C51.19255971 4.69085035 53.11781201 2.35273498 55 0 C61.27 0 67.54 0 74 0 C74 24.42 74 48.84 74 74 C68.39 74 62.78 74 57 74 C56.67 59.81 56.34 45.62 56 31 C54.123125 33.805 52.24625 36.61 50.3125 39.5 C49.73153564 40.36689453 49.15057129 41.23378906 48.55200195 42.12695312 C48.07722412 42.83787109 47.60244629 43.54878906 47.11328125 44.28125 C46.58814941 45.06371094 46.06301758 45.84617187 45.52197266 46.65234375 C43.63890387 49.55699396 41.92860449 52.55014881 40.26245117 55.58398438 C39.84584229 56.05126953 39.4292334 56.51855469 39 57 C37.68 57 36.36 57 35 57 C33.52368164 55.36694336 33.52368164 55.36694336 32.16015625 53.08984375 C31.65419922 52.26419922 31.14824219 51.43855469 30.62695312 50.58789062 C30.11068359 49.71326172 29.59441406 48.83863281 29.0625 47.9375 C28.03450204 46.23710085 27.00458008 44.53786327 25.97265625 42.83984375 C25.52156494 42.08050537 25.07047363 41.32116699 24.60571289 40.53881836 C22.53837602 37.27011894 20.24799292 34.14719009 18 31 C17.67 45.19 17.34 59.38 17 74 C11.39 74 5.78 74 0 74 C0 49.58 0 25.16 0 0 Z " fill="#2187FA" transform="translate(145,289)"/>
<path d="M0 0 C6.703125 -0.0825 13.40625 -0.165 20.3125 -0.25 C22.40505127 -0.28641602 24.49760254 -0.32283203 26.65356445 -0.36035156 C47.83579365 -0.57846866 47.83579365 -0.57846866 55.20629883 5.95605469 C60.4370525 11.36362063 62.28323416 16.79687741 62.375 24.3125 C62.2409553 31.23551452 61.10847544 36.72536998 56.24609375 41.84765625 C53.9421092 43.88228144 51.75259798 45.62370101 49 47 C50.34355696 52.03264556 52.68993179 55.58387747 55.9375 59.5625 C62.23203709 67.39631254 62.23203709 67.39631254 64 71 C63.505 72.485 63.505 72.485 63 74 C47.00474093 76.06920189 47.00474093 76.06920189 42.21533203 72.77099609 C38.68023631 69.04856458 36.31658912 64.54422121 34 60 C32.15911461 56.61057826 30.46388679 54.02852751 28 51 C24.7 50.67 21.4 50.34 18 50 C18 57.92 18 65.84 18 74 C12.06 74 6.12 74 0 74 C0 49.58 0 25.16 0 0 Z M18 16 C18 21.94 18 27.88 18 34 C21.04263267 34.10845027 24.08136204 34.18752063 27.125 34.25 C28.40890625 34.30027344 28.40890625 34.30027344 29.71875 34.3515625 C35.48461373 34.4402681 38.59301586 33.80155181 43 30 C44.44430855 27.11138291 44.37688506 25.20352299 44 22 C41.44975635 18.89835231 39.82300753 17.27433584 36 16 C34.59175107 15.91978001 33.18002769 15.89234023 31.76953125 15.90234375 C30.68442261 15.90609009 30.68442261 15.90609009 29.57739258 15.90991211 C28.20877075 15.92356812 28.20877075 15.92356812 26.8125 15.9375 C23.904375 15.958125 20.99625 15.97875 18 16 Z " fill="#2186F9" transform="translate(373,289)"/>
<path d="M0 0 C18.48 0 36.96 0 56 0 C56 5.28 56 10.56 56 16 C43.13 16 30.26 16 17 16 C17 20.29 17 24.58 17 29 C28.22 29 39.44 29 51 29 C51 34.28 51 39.56 51 45 C39.78 45 28.56 45 17 45 C17 49.29 17 53.58 17 58 C30.2 58 43.4 58 57 58 C57 62.95 57 67.9 57 73 C56 74 56 74 53.75376892 74.12025452 C52.76115555 74.11803391 51.76854218 74.11581329 50.74584961 74.11352539 C49.60901733 74.11340454 48.47218506 74.11328369 47.30090332 74.11315918 C46.09687866 74.10804321 44.892854 74.10292725 43.65234375 74.09765625 C42.55249146 74.09664917 41.45263916 74.09564209 40.31945801 74.09460449 C36.19212814 74.08935362 32.06481307 74.07539251 27.9375 74.0625 C18.718125 74.041875 9.49875 74.02125 0 74 C0 49.58 0 25.16 0 0 Z " fill="#2186FA" transform="translate(304,289)"/>
<path d="M0 0 C5.94 0 11.88 0 18 0 C18.01401855 2.0728125 18.01401855 2.0728125 18.02832031 4.1875 C18.0683434 9.33902629 18.13413701 14.48996312 18.20751953 19.64111328 C18.23565772 21.86597086 18.25690765 24.09092707 18.27099609 26.31591797 C18.29252432 29.52362303 18.33922678 32.73015103 18.390625 35.9375 C18.39185364 36.92427734 18.39308228 37.91105469 18.39434814 38.92773438 C18.51922697 44.88314054 19.16916061 50.20792718 23 55 C27.49912176 57.69817612 31.8822734 57.64679009 37 57 C42.05799698 54.60894688 43.99871521 52.15084189 46 47 C46.45731496 43.37879489 46.48834795 39.77965103 46.51171875 36.1328125 C46.52966995 35.09808807 46.54762115 34.06336365 46.56611633 32.99728394 C46.62010969 29.70656353 46.65408042 26.41598729 46.6875 23.125 C46.72068269 20.88800082 46.75517323 18.65102064 46.79101562 16.4140625 C46.87583017 10.94281251 46.94269411 5.47160447 47 0 C52.94 0 58.88 0 65 0 C65.07455095 6.79522342 65.12879144 13.59020499 65.16479492 20.38574219 C65.17981541 22.69405265 65.20023779 25.00233488 65.22631836 27.31054688 C65.26299885 30.64199825 65.27979431 33.97306995 65.29296875 37.3046875 C65.30845261 38.32488983 65.32393646 39.34509216 65.33988953 40.39620972 C65.34224549 50.58831217 63.34710671 59.57320666 56 67 C46.87671357 74.47810363 37.52159642 75.85154533 25.95214844 75.19970703 C18.57837412 74.44536143 12.02404121 71.38290129 7 66 C0.91860609 56.97983194 -0.29951433 49.05451035 -0.1953125 38.37890625 C-0.1924826 37.27900864 -0.18965271 36.17911102 -0.18673706 35.04588318 C-0.1755898 31.55130897 -0.15049498 28.05699606 -0.125 24.5625 C-0.11496316 22.18555059 -0.10583854 19.80859714 -0.09765625 17.43164062 C-0.07566827 11.62099389 -0.04117582 5.81054117 0 0 Z " fill="#2086F9" transform="translate(66,289)"/>
<path d="M0 0 C6.22875 -0.061875 12.4575 -0.12375 18.875 -0.1875 C21.79255127 -0.22846802 21.79255127 -0.22846802 24.76904297 -0.27026367 C44.85883283 -0.43628765 44.85883283 -0.43628765 51.9375 5.4375 C52.9584375 6.7059375 52.9584375 6.7059375 54 8 C54.556875 8.639375 55.11375 9.27875 55.6875 9.9375 C60.12956216 16.91788339 59.67911631 25.04343974 59 33 C57.50540878 38.79255085 54.79787237 43.34944494 50 47 C41.95006205 50.97777503 34.50415902 52.16604437 25.625 52.0625 C21.850625 52.0315625 21.850625 52.0315625 18 52 C18 59.26 18 66.52 18 74 C12.06 74 6.12 74 0 74 C0 49.58 0 25.16 0 0 Z M18 16 C18 22.6 18 29.2 18 36 C29.68141306 36.59765129 29.68141306 36.59765129 40 32 C42.47342266 28.28986601 42.38503486 26.38939738 42 22 C40.53398287 18.98652035 39.4678938 18.19565202 36.375 16.90234375 C32.55592455 15.8812715 29.03767988 15.77720464 25.125 15.875 C21.598125 15.936875 21.598125 15.936875 18 16 Z " fill="#2187FA" transform="translate(234,289)"/>
<path d="M0 0 C8.58 0 17.16 0 26 0 C27.95365306 1.95365306 27.12022124 4.93399752 27.12442017 7.53401184 C27.12082489 8.47484116 27.11722961 9.41567047 27.11352539 10.38500977 C27.11367142 11.37026642 27.11381744 12.35552307 27.1139679 13.37063599 C27.11326832 16.64424807 27.10547385 19.91780404 27.09765625 23.19140625 C27.09579223 25.45442168 27.09436825 27.71743751 27.09336853 29.98045349 C27.0895421 35.94978948 27.07971075 41.91910132 27.06866455 47.88842773 C27.05845312 53.97444329 27.05387149 60.06046273 27.04882812 66.14648438 C27.03808859 78.0976686 27.02049078 90.04882851 27 102 C18.09 102 9.18 102 0 102 C0 68.34 0 34.68 0 0 Z " fill="#A7A7A7" transform="translate(488,128)"/>
<path d="M0 0 C10 0 10 0 12.55078125 2.125 C13.42283203 3.548125 13.42283203 3.548125 14.3125 5 C14.90675781 5.928125 15.50101562 6.85625 16.11328125 7.8125 C16.73589844 8.864375 17.35851562 9.91625 18 11 C21.54348001 16.83650187 25.34851513 22.44175147 29.3125 28 C29.86228516 28.77472656 30.41207031 29.54945313 30.97851562 30.34765625 C32.31701904 32.23320019 33.6575336 34.11727664 35 36 C40.12618476 29.46225712 44.83531678 22.82612816 49.1875 15.75 C50.03635007 14.39055739 50.88530505 13.03118029 51.734375 11.671875 C53.06529952 9.53498964 54.34024809 7.39698606 55.578125 5.203125 C56.9375 3 56.9375 3 60 0 C63.63 0 67.26 0 71 0 C71 24.42 71 48.84 71 74 C67.7 74 64.4 74 61 74 C60.67 55.85 60.34 37.7 60 19 C54.54440779 27.17552487 54.54440779 27.17552487 49.125 35.375 C44.91703938 41.69862971 40.43669481 47.8359754 36 54 C31.9274919 52.6424973 31.26815285 50.60137394 29 47 C28.23149396 45.90649568 27.45395249 44.81929133 26.66796875 43.73828125 C26.26513672 43.18180908 25.86230469 42.62533691 25.44726562 42.05200195 C25.03154297 41.47796631 24.61582031 40.90393066 24.1875 40.3125 C19.8925355 34.34647617 15.88759905 28.24003825 12 22 C11.34 21.01 10.68 20.02 10 19 C9.67 37.15 9.34 55.3 9 74 C6.03 74 3.06 74 0 74 C0 49.58 0 25.16 0 0 Z " fill="#A5A5A5" transform="translate(461,289)"/>
<path d="M0 0 C45.04704158 0 45.04704158 0 54.2890625 9.14453125 C54.85367188 9.75683594 55.41828125 10.36914062 56 11 C56.56460938 11.58136719 57.12921875 12.16273438 57.7109375 12.76171875 C64.30969042 19.92377984 65.50842668 26.3708253 65.4375 35.875 C65.45748047 36.81730469 65.47746094 37.75960937 65.49804688 38.73046875 C65.49345512 45.37014305 64.17562059 50.19115334 61 56 C60.53335938 56.91652344 60.06671875 57.83304687 59.5859375 58.77734375 C57.57956663 61.58922805 55.36063737 63.45393232 52.625 65.5625 C51.22121094 66.67818359 51.22121094 66.67818359 49.7890625 67.81640625 C33.44743925 77.23389841 19.43532794 74 0 74 C0 49.58 0 25.16 0 0 Z M10 9 C10 27.15 10 45.3 10 64 C31.21678195 65.24594779 31.21678195 65.24594779 48.34375 55.96875 C53.78134178 49.5051975 55.44698421 42.37722077 55.3359375 34.08203125 C54.65121103 27.80006401 52.53242091 21.74712616 48.203125 17.05078125 C36.19213247 7.51405318 25.9549051 9 10 9 Z " fill="#A5A5A5" transform="translate(619,289)"/>
<path d="M0 0 C17.82 0 35.64 0 54 0 C54 2.97 54 5.94 54 9 C39.48 9 24.96 9 10 9 C10 16.59 10 24.18 10 32 C22.87 32 35.74 32 49 32 C49 34.97 49 37.94 49 41 C36.13 41 23.26 41 10 41 C10 48.59 10 56.18 10 64 C24.85 64 39.7 64 55 64 C55 67.3 55 70.6 55 74 C36.85 74 18.7 74 0 74 C0 49.58 0 25.16 0 0 Z " fill="#A6A6A6" transform="translate(550,289)"/>
<path d="M0 0 C3.3 0 6.6 0 10 0 C12.59703836 4.47267718 14.94866368 8.78208668 16.828125 13.6015625 C19.09729972 19.37949417 21.77577 24.92534951 24.5 30.5 C27.56916709 36.78050269 30.46571458 43.04378856 33.00390625 49.55761719 C35.06813321 54.61902075 37.56484565 59.48983043 39.99609375 64.3828125 C40.38410156 65.18203125 40.77210938 65.98125 41.171875 66.8046875 C41.5234668 67.51608887 41.87505859 68.22749023 42.23730469 68.96044922 C43 71 43 71 43 75 C39.37 75 35.74 75 32 75 C31.01761592 72.58459694 30.03899782 70.16778178 29.0625 67.75 C28.78470703 67.06808594 28.50691406 66.38617188 28.22070312 65.68359375 C26.92149685 62.45905769 25.8452266 59.38090641 25 56 C12.13 56 -0.74 56 -14 56 C-14.99 58.97 -15.98 61.94 -17 65 C-17.84851455 66.87629274 -18.73584671 68.7363545 -19.6875 70.5625 C-20.12449219 71.40941406 -20.56148437 72.25632812 -21.01171875 73.12890625 C-21.33785156 73.74636719 -21.66398438 74.36382812 -22 75 C-25.3 75 -28.6 75 -32 75 C-30.31137668 64.93224042 -24.89100969 55.44471515 -20.625 46.25 C-17.42606715 39.32183565 -14.26366708 32.38581526 -11.25 25.375 C-8.54246031 19.07688608 -5.53763383 12.97391277 -2.3828125 6.890625 C-0.83297961 3.89820921 -0.83297961 3.89820921 0 0 Z M5 14 C2.54951879 17.93827337 0.68847607 21.67003322 -0.8125 26.0625 C-2.67995577 31.45487228 -5.10203652 36.43298364 -7.71411133 41.49243164 C-9.3131417 44.11471927 -9.3131417 44.11471927 -10 47 C-0.1 47 9.8 47 20 47 C15.91345798 35.65984591 11.281563 24.83122564 6 14 C5.67 14 5.34 14 5 14 Z " fill="#A4A4A4" transform="translate(756,288)"/>
<path d="M0 0 C6.27 0 12.54 0 19 0 C19.07443124 7.38319725 19.12873571 14.76617364 19.16479492 22.1496582 C19.17983529 24.65881152 19.20027272 27.16793874 19.22631836 29.67700195 C19.26291014 33.29384825 19.27977448 36.91034542 19.29296875 40.52734375 C19.30845261 41.64020248 19.32393646 42.75306122 19.33988953 43.89964294 C19.34189358 53.27830218 17.66991089 60.85758662 11.74609375 68.2734375 C6.43048301 73.52958951 -0.42928166 75.13614559 -7.6875 75.25 C-17.06276051 75.12484482 -22.94720942 72.47110665 -30.34765625 66.81640625 C-32 65 -32 65 -32 61 C-30.03125 58.421875 -30.03125 58.421875 -27.5 55.75 C-26.6646875 54.85796875 -25.829375 53.9659375 -24.96875 53.046875 C-23.99421875 52.03367187 -23.99421875 52.03367187 -23 51 C-19.12260577 51.7919784 -17.02658036 53.45130075 -14 56 C-11.01002175 57.49498913 -8.29957225 57.11577446 -5 57 C-3.515 56.505 -3.515 56.505 -2 56 C-0.83200782 52.99499901 -0.84898007 49.96854137 -0.79467773 46.77246094 C-0.77473251 45.73168396 -0.75478729 44.69090698 -0.73423767 43.61859131 C-0.70916893 41.94340424 -0.70916893 41.94340424 -0.68359375 40.234375 C-0.66281265 39.08584045 -0.64203156 37.93730591 -0.62062073 36.75396729 C-0.55525007 33.08603889 -0.49629806 29.41803907 -0.4375 25.75 C-0.39430293 23.26301346 -0.35068825 20.77603413 -0.30664062 18.2890625 C-0.19958138 12.19278148 -0.09827853 6.09642864 0 0 Z " fill="#2287FA" transform="translate(34,289)"/>
<path d="M0 0 C8.91 0 17.82 0 27 0 C27 20.46 27 40.92 27 62 C18.09 62 9.18 62 0 62 C0 41.54 0 21.08 0 0 Z " fill="#A7A7A7" transform="translate(453,168)"/>
<path d="M0 0 C4.269375 -0.020625 8.53875 -0.04125 12.9375 -0.0625 C14.95991821 -0.07615601 14.95991821 -0.07615601 17.02319336 -0.09008789 C18.6030603 -0.09383423 18.6030603 -0.09383423 20.21484375 -0.09765625 C21.84087524 -0.10551147 21.84087524 -0.10551147 23.49975586 -0.11352539 C26 0 26 0 27 1 C27.08855161 3.6662603 27.11524673 6.30647114 27.09765625 8.97265625 C27.0962413 9.77029892 27.09482635 10.56794159 27.09336853 11.38975525 C27.08775316 13.94737435 27.07519812 16.50490718 27.0625 19.0625 C27.05748698 20.79231645 27.05292373 22.52213426 27.04882812 24.25195312 C27.03862791 28.50136239 27.01905568 32.75058416 27 37 C18.09 37 9.18 37 0 37 C0 24.79 0 12.58 0 0 Z " fill="#A6A6A6" transform="translate(419,193)"/>
<path d="M0 0 C3.63 0 7.26 0 11 0 C11 24.42 11 48.84 11 74 C7.7 74 4.4 74 1 74 C0 73 0 73 -0.12025452 70.10838318 C-0.11803391 68.81376663 -0.11581329 67.51915009 -0.11352539 66.18530273 C-0.11367142 65.47314606 -0.11381744 64.76098938 -0.1139679 64.0272522 C-0.1132687 61.66266888 -0.10547606 59.29816339 -0.09765625 56.93359375 C-0.09579209 55.29834537 -0.09436818 53.66309643 -0.09336853 52.02784729 C-0.08954318 47.71565215 -0.07971275 43.40349048 -0.06866455 39.09130859 C-0.0584508 34.69434054 -0.05387099 30.29736711 -0.04882812 25.90039062 C-0.03809049 17.26691169 -0.02101387 8.63346 0 0 Z " fill="#A3A3A3" transform="translate(700,289)"/>
<path d="M0 0 C18.48 0 36.96 0 56 0 C56 5.28 56 10.56 56 16 C55.67 16 55.34 16 55 16 C55 12.04 55 8.08 55 4 C53.68 4 52.36 4 51 4 C51 3.34 51 2.68 51 2 C47.20452079 2.96776098 47.20452079 2.96776098 44 5 C38.6875 5.35416667 38.6875 5.35416667 35.9375 3.9375 C33.30232834 2.66241694 31.74738611 3.18320953 29 4 C28.67 4.33 28.34 4.66 28 5 C26.31391034 5.07205511 24.62499341 5.08386068 22.9375 5.0625 C22.01839844 5.05347656 21.09929687 5.04445313 20.15234375 5.03515625 C19.44207031 5.02355469 18.73179687 5.01195312 18 5 C18 4.01 18 3.02 18 2 C16.18641846 2.47505678 14.37415821 2.95516042 12.5625 3.4375 C11.55316406 3.70433594 10.54382813 3.97117187 9.50390625 4.24609375 C7.08247999 4.75978077 7.08247999 4.75978077 6 6 C6.020625 6.9075 6.04125 7.815 6.0625 8.75 C6 12 6 12 4.875 14.625 C3.70388482 16.94801839 3.70388482 16.94801839 4.875 18.9375 C5.24625 19.618125 5.6175 20.29875 6 21 C6.25 24.125 6.25 24.125 6 27 C5.34 27.66 4.68 28.32 4 29 C3.61713197 32.73296326 3.85084215 33.77626323 6 37 C6.17193073 39.82983199 6.23208437 42.55881873 6.1953125 45.38671875 C6.1924826 46.20372757 6.18965271 47.02073639 6.18673706 47.86250305 C6.17554541 50.47098459 6.1504429 53.0791223 6.125 55.6875 C6.11496888 57.45637525 6.10584326 59.22525588 6.09765625 60.99414062 C6.07560942 65.32955949 6.0410867 69.66472145 6 74 C4.02 74 2.04 74 0 74 C0 49.58 0 25.16 0 0 Z " fill="#3582E0" transform="translate(304,289)"/>
<path d="M0 0 C6.27 0 12.54 0 19 0 C17.68 0.33 16.36 0.66 15 1 C14.67 1.99 14.34 2.98 14 4 C11.36 4.33 8.72 4.66 6 5 C3.14649536 11.85549599 3.14649536 11.85549599 4 19 C4.33 19.66 4.66 20.32 5 21 C5.1875 24 5.1875 24 5 27 C4.34 27.66 3.68 28.32 3 29 C2.61713197 32.73296326 2.85084215 33.77626323 5 37 C5.30370218 41.78330939 5.4194552 44.80627765 3 49 C3.33 49.66 3.66 50.32 4 51 C4.08449628 52.7404417 4.10723024 54.48409722 4.09765625 56.2265625 C4.09282227 57.7734375 4.09282227 57.7734375 4.08789062 59.3515625 C4.07951172 60.43179688 4.07113281 61.51203125 4.0625 62.625 C4.05798828 63.71296875 4.05347656 64.8009375 4.04882812 65.921875 C4.03701776 68.61463789 4.02054778 71.30729188 4 74 C2.68 74 1.36 74 0 74 C0 49.58 0 25.16 0 0 Z " fill="#3583E1" transform="translate(145,289)"/>
<path d="M0 0 C5.94 0 11.88 0 18 0 C17.67 1.65 17.34 3.3 17 5 C16.67 4.34 16.34 3.68 16 3 C12.7 4.32 9.4 5.64 6 7 C5.98541748 8.06436279 5.97083496 9.12872559 5.95581055 10.2253418 C5.8977022 14.18596469 5.82047055 18.14602648 5.73754883 22.10620117 C5.70435831 23.81802238 5.67630811 25.52995148 5.65356445 27.24194336 C5.61990968 29.70733479 5.56759026 32.17174281 5.51171875 34.63671875 C5.50213387 35.77919319 5.50213387 35.77919319 5.49235535 36.94474792 C5.36732497 41.494982 4.69643876 44.32967632 2 48 C1.278125 49.093125 0.55625 50.18625 -0.1875 51.3125 C-0.785625 52.199375 -1.38375 53.08625 -2 54 C-2.66 53.67 -3.32 53.34 -4 53 C-3.5155542 52.23413574 -3.0311084 51.46827148 -2.53198242 50.67919922 C-0.48065119 45.75273522 -0.52215543 41.41862582 -0.48828125 36.1328125 C-0.47033005 35.09808807 -0.45237885 34.06336365 -0.43388367 32.99728394 C-0.37989031 29.70656353 -0.34591958 26.41598729 -0.3125 23.125 C-0.27931731 20.88800082 -0.24482677 18.65102064 -0.20898438 16.4140625 C-0.12416983 10.94281251 -0.05730589 5.47160447 0 0 Z " fill="#2F84E7" transform="translate(113,289)"/>
<path d="M0 0 C6.3525 -0.04125 12.705 -0.0825 19.25 -0.125 C21.2496582 -0.14320801 23.24931641 -0.16141602 25.30957031 -0.18017578 C26.89908581 -0.18601843 28.48860431 -0.19111453 30.078125 -0.1953125 C30.89974121 -0.20554443 31.72135742 -0.21577637 32.56787109 -0.22631836 C39.74591157 -0.2285108 39.74591157 -0.2285108 43 2 C41.865625 1.979375 40.73125 1.95875 39.5625 1.9375 C36.18424326 1.58422523 36.18424326 1.58422523 35 3 C31.82439464 3.06166224 28.66325859 3.02258755 25.48828125 2.9609375 C17.24976097 2.87089903 9.31463012 3.51090411 1 4 C1 27.1 1 50.2 1 74 C0.67 74 0.34 74 0 74 C0 49.58 0 25.16 0 0 Z " fill="#3778CE" transform="translate(234,289)"/>
<path d="M0 0 C2 2 2 2 2.25 5 C2 8 2 8 0 10 C-0.38286803 13.73296326 -0.14915785 14.77626323 2 18 C2.17193073 20.82983199 2.23208437 23.55881873 2.1953125 26.38671875 C2.1924826 27.20372757 2.18965271 28.02073639 2.18673706 28.86250305 C2.17554541 31.47098459 2.1504429 34.0791223 2.125 36.6875 C2.11496888 38.45637525 2.10584326 40.22525588 2.09765625 41.99414062 C2.07560942 46.32955949 2.0410867 50.66472145 2 55 C0.68 54.67 -0.64 54.34 -2 54 C-2.02527002 47.46721214 -2.04283292 40.93443679 -2.05493164 34.40161133 C-2.05997317 32.17732268 -2.06680623 29.95303737 -2.07543945 27.72875977 C-2.08751298 24.53921691 -2.09322996 21.34971771 -2.09765625 18.16015625 C-2.10281754 17.15912369 -2.10797882 16.15809113 -2.11329651 15.12672424 C-2.11337204 14.20584518 -2.11344757 13.28496613 -2.11352539 12.33618164 C-2.115746 11.52121719 -2.11796661 10.70625275 -2.12025452 9.86659241 C-2 8 -2 8 -1 7 C-0.63239269 4.67182036 -0.29758419 2.3381615 0 0 Z " fill="#3184E3" transform="translate(308,308)"/>
<path d="M0 0 C5.94 0 11.88 0 18 0 C18.33 16.17 18.66 32.34 19 49 C18.34 48.67 17.68 48.34 17 48 C17 33.48 17 18.96 17 4 C11.98660331 4.55704408 6.97561622 5.17073063 2 6 C1.67 20.52 1.34 35.04 1 50 C0.67 50 0.34 50 0 50 C0 33.5 0 17 0 0 Z " fill="#347FD3" transform="translate(66,289)"/>
<path d="M0 0 C5.92650126 -0.04939701 11.85288297 -0.08571817 17.77954102 -0.10986328 C19.79616381 -0.11992773 21.81277199 -0.13358047 23.8293457 -0.15087891 C26.72611089 -0.17510769 29.62268331 -0.18647859 32.51953125 -0.1953125 C33.42274612 -0.20563507 34.325961 -0.21595764 35.25654602 -0.22659302 C36.09719101 -0.22674408 36.937836 -0.22689514 37.80395508 -0.22705078 C38.54341873 -0.231492 39.28288239 -0.23593323 40.04475403 -0.24050903 C42 0 42 0 45 2 C41.57905758 4.28062828 40.31812778 4.21925007 36.3125 4.125 C34.82169922 4.09792969 34.82169922 4.09792969 33.30078125 4.0703125 C32.54152344 4.04710937 31.78226562 4.02390625 31 4 C31 3.34 31 2.68 31 2 C26.92035719 3.30155006 26.92035719 3.30155006 23 5 C21.29297265 5.06996014 19.58331997 5.08440154 17.875 5.0625 C16.96492188 5.05347656 16.05484375 5.04445313 15.1171875 5.03515625 C14.41851562 5.02355469 13.71984375 5.01195312 13 5 C13 4.01 13 3.02 13 2 C9.75016865 3.08784968 9.75016865 3.08784968 7 5 C4.66702567 5.04092937 2.33294775 5.04241723 0 5 C0 3.35 0 1.7 0 0 Z " fill="#3B80D5" transform="translate(373,289)"/>
<path d="M0 0 C2.31 0 4.62 0 7 0 C6.01 0.495 6.01 0.495 5 1 C2.31643961 5.67519231 2.80857441 10.53828061 2.9375 15.75 C2.97177445 17.47387774 3.00195104 19.19784356 3.02734375 20.921875 C3.04531006 21.68081055 3.06327637 22.43974609 3.08178711 23.22167969 C3 25 3 25 2 26 C1.93623296 27.50525914 1.94287791 29.01358198 1.97827148 30.51977539 C1.99836777 31.48069595 2.01846405 32.44161652 2.03916931 33.43165588 C2.06620438 34.476436 2.09323944 35.52121613 2.12109375 36.59765625 C2.15651024 38.19364906 2.15651024 38.19364906 2.19264221 39.82188416 C2.26949538 43.23555129 2.3534261 46.64900379 2.4375 50.0625 C2.49069902 52.37043204 2.54343954 54.67837471 2.59570312 56.98632812 C2.72513964 62.65768621 2.86039434 68.32888363 3 74 C2.01 74 1.02 74 0 74 C0 49.58 0 25.16 0 0 Z " fill="#4380C7" transform="translate(304,289)"/>
<path d="M0 0 C5.94 0 11.88 0 18 0 C17.67 1.32 17.34 2.64 17 4 C17 3.34 17 2.68 17 2 C9.35024875 2.53058477 9.35024875 2.53058477 3 6 C2.76641314 8.57867844 2.65060069 11.05806987 2.62109375 13.640625 C2.60409927 14.40042664 2.5871048 15.16022827 2.56959534 15.9430542 C2.51638977 18.37861756 2.4761831 20.81416612 2.4375 23.25 C2.39340777 25.67145861 2.34647546 28.09279251 2.29469299 30.51409912 C2.2630441 32.02104347 2.23606196 33.5280954 2.21446228 35.03521729 C2.13513854 39.11504547 1.77986655 42.99419678 1 47 C0.67 47 0.34 47 0 47 C0 31.49 0 15.98 0 0 Z " fill="#3D80D6" transform="translate(113,289)"/>
<path d="M0 0 C4.62 0 9.24 0 14 0 C13.67 0.66 13.34 1.32 13 2 C10.70779595 2.35437205 8.44461018 2.44336611 6.12890625 2.55859375 C3.61259298 2.82049547 3.61259298 2.82049547 2 6 C1.66981685 9.05384162 1.66981685 9.05384162 1.68115234 12.58276367 C1.67110672 13.24644455 1.6610611 13.91012543 1.65071106 14.59391785 C1.61984687 16.78525942 1.60283532 18.97647865 1.5859375 21.16796875 C1.56722841 22.68826859 1.54765519 24.20855801 1.5272522 25.72883606 C1.47589743 29.72856512 1.43628974 33.72832786 1.39910889 37.72821045 C1.35909012 41.8104284 1.3079881 45.89250586 1.2578125 49.97460938 C1.16101365 57.98297698 1.07662166 65.99141405 1 74 C0.67 74 0.34 74 0 74 C0 49.58 0 25.16 0 0 Z " fill="#376FC0" transform="translate(145,289)"/>
<path d="M0 0 C6.27 0 12.54 0 19 0 C19 0.99 19 1.98 19 3 C17.88625 2.814375 16.7725 2.62875 15.625 2.4375 C12.17431139 1.68319343 12.17431139 1.68319343 10 3 C7.03 3 4.06 3 1 3 C1 18.84 1 34.68 1 51 C0.67 51 0.34 51 0 51 C0 34.17 0 17.34 0 0 Z " fill="#327DCB" transform="translate(34,289)"/>
<path d="M0 0 C0.96550781 0.00451172 1.93101562 0.00902344 2.92578125 0.01367188 C5.28392089 0.02534583 7.64192602 0.04171979 10 0.0625 C5.99058587 3.13638417 3.95889208 4.1901781 -1.125 4.125 C-2.03507812 4.11597656 -2.94515625 4.10695313 -3.8828125 4.09765625 C-4.58148438 4.08605469 -5.28015625 4.07445312 -6 4.0625 C-6 3.0725 -6 2.0825 -6 1.0625 C-9.24983135 2.15034968 -9.24983135 2.15034968 -12 4.0625 C-14.33297433 4.10342937 -16.66705225 4.10491723 -19 4.0625 C-19 3.0725 -19 2.0825 -19 1.0625 C-12.62542652 0.10781742 -6.43938347 -0.0577324 0 0 Z " fill="#3183E7" transform="translate(392,289.9375)"/>
<path d="M0 0 C7.26 0 14.52 0 22 0 C22 5.28 22 10.56 22 16 C21.67 16 21.34 16 21 16 C21 12.04 21 8.08 21 4 C19.68 4 18.36 4 17 4 C17 3.34 17 2.68 17 2 C15.94039063 2.02320313 14.88078125 2.04640625 13.7890625 2.0703125 C12.4010487 2.08906944 11.0130273 2.10726972 9.625 2.125 C8.57699219 2.15013672 8.57699219 2.15013672 7.5078125 2.17578125 C5.67102514 2.19344267 3.83398037 2.10303261 2 2 C1.34 1.34 0.68 0.68 0 0 Z " fill="#3C80D9" transform="translate(338,289)"/>
<path d="M0 0 C1.98 0 3.96 0 6 0 C5.02885254 0.93815552 5.02885254 0.93815552 4.03808594 1.89526367 C1.22081781 6.18697411 1.39754669 9.64555806 1.390625 14.67578125 C1.37408875 15.6009404 1.35755249 16.52609955 1.34051514 17.47929382 C1.29207004 20.42376365 1.27067189 23.36771713 1.25 26.3125 C1.22183741 28.31317697 1.19190958 30.31382992 1.16015625 32.31445312 C1.0863119 37.20959291 1.03671586 42.10444663 1 47 C0.67 47 0.34 47 0 47 C0 31.49 0 15.98 0 0 Z " fill="#3F80CA" transform="translate(113,289)"/>
<path d="M0 0 C0.66 0 1.32 0 2 0 C3.18695418 2.37390836 3.12075833 3.80244951 3.11352539 6.44970703 C3.11344986 7.37051056 3.11337433 8.29131409 3.11329651 9.24002075 C3.10813522 10.23589203 3.10297394 11.23176331 3.09765625 12.2578125 C3.0962413 13.27600067 3.09482635 14.29418884 3.09336853 15.3432312 C3.087759 18.60385035 3.07520488 21.86440151 3.0625 25.125 C3.05748623 27.33203026 3.05292311 29.53906159 3.04882812 31.74609375 C3.03778648 37.16408581 3.02103905 42.58203805 3 48 C2.67 48 2.34 48 2 48 C1.67 33.81 1.34 19.62 1 5 C0.01 5.495 0.01 5.495 -1 6 C-1.042721 4.33388095 -1.04063832 2.66617115 -1 1 C-0.67 0.67 -0.34 0.34 0 0 Z " fill="#3382E0" transform="translate(200,315)"/>
<path d="M0 0 C0.66 0 1.32 0 2 0 C2 1.98 2 3.96 2 6 C9.95735532 7.88849677 17.84515697 8.55348122 26 9 C26 9.33 26 9.66 26 10 C17.42 10 8.84 10 0 10 C0 6.7 0 3.4 0 0 Z " fill="#3D7ECE" transform="translate(488,110)"/>
<path d="M0 0 C0.33 0 0.66 0 1 0 C1 1.65 1 3.3 1 5 C-1.35424675 5.02726927 -3.70816962 5.04696719 -6.0625 5.0625 C-8.02896484 5.07990234 -8.02896484 5.07990234 -10.03515625 5.09765625 C-13.79604214 5.00502359 -17.31263595 4.74686737 -21 4 C-21.33 3.34 -21.66 2.68 -22 2 C-18.68751813 1.97111854 -15.37506833 1.95324201 -12.0625 1.9375 C-11.11697266 1.92912109 -10.17144531 1.92074219 -9.19726562 1.91210938 C-7.84858398 1.90727539 -7.84858398 1.90727539 -6.47265625 1.90234375 C-5.22367554 1.89448853 -5.22367554 1.89448853 -3.94946289 1.88647461 C-2 2 -2 2 -1 3 C-0.67 2.01 -0.34 1.02 0 0 Z " fill="#2B83EA" transform="translate(514,114)"/>
<path d="M0 0 C0.99 0 1.98 0 3 0 C3 5.61 3 11.22 3 17 C2.01 16.67 1.02 16.34 0 16 C0 10.72 0 5.44 0 0 Z " fill="#2E82E7" transform="translate(388,306)"/>
<path d="M0 0 C0 0.66 0 1.32 0 2 C-0.56847656 2.06058594 -1.13695313 2.12117188 -1.72265625 2.18359375 C-6.49781037 2.70176573 -11.2492305 3.29243859 -16 4 C-16 2.68 -16 1.36 -16 0 C-14.27185839 -0.19672365 -12.54240803 -0.38196799 -10.8125 -0.5625 C-9.84957031 -0.66691406 -8.88664062 -0.77132813 -7.89453125 -0.87890625 C-5.05766623 -0.99758751 -2.74576329 -0.67765639 0 0 Z " fill="#3281EA" transform="translate(83,291)"/>
<path d="M0 0 C5.94 0 11.88 0 18 0 C18 0.99 18 1.98 18 3 C16.88625 2.814375 15.7725 2.62875 14.625 2.4375 C11.17431139 1.68319343 11.17431139 1.68319343 9 3 C7.45976004 3.06950541 5.91665012 3.08452357 4.375 3.0625 C3.14910156 3.04896484 3.14910156 3.04896484 1.8984375 3.03515625 C0.95871094 3.01775391 0.95871094 3.01775391 0 3 C0 2.01 0 1.02 0 0 Z " fill="#3C82D5" transform="translate(35,289)"/>
<path d="M0 0 C0 0.66 0 1.32 0 2 C-5.94 2 -11.88 2 -18 2 C-18 1.34 -18 0.68 -18 0 C-17.06027344 -0.09087891 -17.06027344 -0.09087891 -16.1015625 -0.18359375 C-14.87566406 -0.30927734 -14.87566406 -0.30927734 -13.625 -0.4375 C-12.81289063 -0.51871094 -12.00078125 -0.59992188 -11.1640625 -0.68359375 C-6.58895795 -1.35251698 -4.79700301 -1.51016761 0 0 Z " fill="#2D86EA" transform="translate(53,292)"/>
<path d="M0 0 C2.31 0 4.62 0 7 0 C6.01 0.495 6.01 0.495 5 1 C3.51009891 3.97980218 2.94342204 6.42433472 2.5 9.75 C2.335 10.8225 2.17 11.895 2 13 C1.01 13.495 1.01 13.495 0 14 C0 9.38 0 4.76 0 0 Z " fill="#497DBE" transform="translate(304,289)"/>
<path d="M0 0 C-3.69129526 2.4608635 -5.55158754 2.2078399 -9.9375 2.125 C-11.16339844 2.10695313 -12.38929688 2.08890625 -13.65234375 2.0703125 C-15.30943359 2.03550781 -15.30943359 2.03550781 -17 2 C-18.32 2 -19.64 2 -21 2 C-17.42502309 -0.38331794 -15.31615977 -0.41523007 -11.0625 -0.6875 C-9.83660156 -0.77386719 -8.61070312 -0.86023438 -7.34765625 -0.94921875 C-4.58190031 -0.99117304 -2.59229708 -0.86409903 0 0 Z " fill="#2C85EE" transform="translate(256,292)"/>
<path d="M0 0 C0.66 0 1.32 0 2 0 C2.66 1.32 3.32 2.64 4 4 C-0.95 4 -5.9 4 -11 4 C-11 3.01 -11 2.02 -11 1 C-10.28972656 1.01160156 -9.57945312 1.02320313 -8.84765625 1.03515625 C-7.92855469 1.04417969 -7.00945312 1.05320312 -6.0625 1.0625 C-4.68771484 1.07990234 -4.68771484 1.07990234 -3.28515625 1.09765625 C-1.03406673 1.25949049 -1.03406673 1.25949049 0 0 Z " fill="#2E84EE" transform="translate(270,290)"/>
<path d="M0 0 C2.58361518 -0.05407567 5.16609255 -0.093707 7.75 -0.125 C8.84441406 -0.15013672 8.84441406 -0.15013672 9.9609375 -0.17578125 C13.8044624 -0.21072239 16.74606772 -0.17499684 20 2 C18.88625 1.979375 17.7725 1.95875 16.625 1.9375 C13.16784079 1.73619282 13.16784079 1.73619282 11 3 C9.11515056 2.75378093 7.23977913 2.43111913 5.375 2.0625 C4.37210937 1.86785156 3.36921875 1.67320312 2.3359375 1.47265625 C1.17964844 1.23869141 1.17964844 1.23869141 0 1 C0 0.67 0 0.34 0 0 Z " fill="#3A7CCD" transform="translate(257,289)"/>
<path d="M0 0 C4.29 0 8.58 0 13 0 C12.67 0.66 12.34 1.32 12 2 C9.74053416 2.35557331 7.5100223 2.44330506 5.2265625 2.55859375 C2.59007139 3.08126655 1.68584902 3.96066651 0 6 C0 4.02 0 2.04 0 0 Z " fill="#4580CA" transform="translate(146,289)"/>
<path d="M0 0 C6.27 0 12.54 0 19 0 C19 0.99 19 1.98 19 3 C17.00045254 3.04254356 14.99958364 3.04080783 13 3 C12.67 2.67 12.34 2.34 12 2 C9.98405418 1.76572222 7.961526 1.58663876 5.9375 1.4375 C4.83277344 1.35371094 3.72804687 1.26992188 2.58984375 1.18359375 C1.73519531 1.12300781 0.88054687 1.06242187 0 1 C0 0.67 0 0.34 0 0 Z " fill="#3A82D1" transform="translate(200,289)"/>
<path d="M0 0 C2.475 0.99 2.475 0.99 5 2 C5 5.96 5 9.92 5 14 C4.34 14 3.68 14 3 14 C2.92652344 12.93458984 2.92652344 12.93458984 2.8515625 11.84765625 C2.73941406 10.46900391 2.73941406 10.46900391 2.625 9.0625 C2.55539062 8.14597656 2.48578125 7.22945313 2.4140625 6.28515625 C2.27742188 5.53105469 2.14078125 4.77695312 2 4 C1.34 3.67 0.68 3.34 0 3 C0 2.01 0 1.02 0 0 Z " fill="#2F83E7" transform="translate(354,291)"/>
<path d="M0 0 C0.33 0 0.66 0 1 0 C1.0810206 2.10353495 1.13919907 4.20795952 1.1875 6.3125 C1.22230469 7.48425781 1.25710938 8.65601562 1.29296875 9.86328125 C1 13 1 13 -0.51171875 14.91796875 C-1.00285156 15.27503906 -1.49398438 15.63210937 -2 16 C-1.85764543 14.27054347 -1.71095618 12.54144346 -1.5625 10.8125 C-1.48128906 9.84957031 -1.40007812 8.88664062 -1.31640625 7.89453125 C-1.02333849 5.21350398 -0.57296246 2.6337014 0 0 Z " fill="#3677BC" transform="translate(290,84)"/>
<path d="M0 0 C4.29 0 8.58 0 13 0 C11.02 0.99 11.02 0.99 9 2 C8.29875 2.37125 7.5975 2.7425 6.875 3.125 C5 4 5 4 3 4 C3 3.01 3 2.02 3 1 C2.01 0.67 1.02 0.34 0 0 Z " fill="#2885E5" transform="translate(199,290)"/>
<path d="M0 0 C1.32 0 2.64 0 4 0 C3.25 6.75 3.25 6.75 1 9 C-0.4783226 6.04335481 -0.06032783 3.25770263 0 0 Z " fill="#367DCF" transform="translate(316,80)"/>
<path d="M0 0 C1.48285242 0.95262034 2.96118201 1.91228405 4.4375 2.875 C5.67306641 3.67550781 5.67306641 3.67550781 6.93359375 4.4921875 C9 6 9 6 10 8 C9.01 8 8.02 8 7 8 C7 7.34 7 6.68 7 6 C5.68 6.33 4.36 6.66 3 7 C0 2.25 0 2.25 0 0 Z " fill="#2974DB" transform="translate(469,25)"/>
<path d="M0 0 C1.32 0 2.64 0 4 0 C4 5.28 4 10.56 4 16 C3.67 16 3.34 16 3 16 C2.95101563 15.18015625 2.90203125 14.3603125 2.8515625 13.515625 C2.77679688 12.43796875 2.70203125 11.3603125 2.625 10.25 C2.55539062 9.18265625 2.48578125 8.1153125 2.4140625 7.015625 C2.0271777 4.19793568 1.44313834 2.4169634 0 0 Z " fill="#3F78C0" transform="translate(356,289)"/>
<path d="M0 0 C3 2 3 2 3.5 4.4375 C3 7 3 7 0.5 8.8125 C-0.325 9.204375 -1.15 9.59625 -2 10 C-1.34 6.7 -0.68 3.4 0 0 Z " fill="#2E85E7" transform="translate(291,90)"/>
<path d="M0 0 C0.33 0 0.66 0 1 0 C2.13764351 4.26616316 3 7.56486311 3 12 C2.34 12 1.68 12 1 12 C-0.26237731 9.47524538 -0.09856404 7.68799534 -0.0625 4.875 C-0.05347656 3.96492188 -0.04445313 3.05484375 -0.03515625 2.1171875 C-0.02355469 1.41851562 -0.01195312 0.71984375 0 0 Z " fill="#2B7DD9" transform="translate(509,82)"/>
<path d="M0 0 C0.94875 0.04125 1.8975 0.0825 2.875 0.125 C2.875 0.455 2.875 0.785 2.875 1.125 C0.895 1.785 -1.085 2.445 -3.125 3.125 C-3.24875 3.929375 -3.3725 4.73375 -3.5 5.5625 C-3.70625 6.408125 -3.9125 7.25375 -4.125 8.125 C-5.115 8.62 -5.115 8.62 -6.125 9.125 C-5.13392857 0.20535714 -5.13392857 0.20535714 0 0 Z " fill="#2D86F3" transform="translate(154.125,292.875)"/>
<path d="M0 0 C1.98 0 3.96 0 6 0 C4.71937515 1.7074998 3.38232443 3.37373596 2 5 C1.34 5 0.68 5 0 5 C0 3.35 0 1.7 0 0 Z " fill="#4C7EBE" transform="translate(113,289)"/>
<path d="M0 0 C0.66 0 1.32 0 2 0 C2.33 0.66 2.66 1.32 3 2 C5.52733235 2.65555119 5.52733235 2.65555119 8 3 C7.67 3.99 7.34 4.98 7 6 C5.68 6 4.36 6 3 6 C2.01 4.02 1.02 2.04 0 0 Z " fill="#3579DD" transform="translate(177,340)"/>
<path d="M0 0 C0.66 0 1.32 0 2 0 C2.33 2.31 2.66 4.62 3 7 C2.34 6.34 1.68 5.68 1 5 C0.01 5.495 0.01 5.495 -1 6 C-1.042721 4.33388095 -1.04063832 2.66617115 -1 1 C-0.67 0.67 -0.34 0.34 0 0 Z " fill="#2585E3" transform="translate(200,315)"/>
<path d="M0 0 C2.79872437 2.52788007 4.45773019 4.20411134 5 8 C3.68 8 2.36 8 1 8 C0.67 5.36 0.34 2.72 0 0 Z " fill="#1F80DC" transform="translate(497,56)"/>
<path d="M0 0 C0.66 0.66 1.32 1.32 2 2 C0.35 3.65 -1.3 5.3 -3 7 C-3.66 6.34 -4.32 5.68 -5 5 C-3.35 3.35 -1.7 1.7 0 0 Z " fill="#1A7CEB" transform="translate(322,32)"/>
</svg>
