<?xml version="1.0" encoding="UTF-8"?>
<svg version="1.1" xmlns="http://www.w3.org/2000/svg" width="1300" height="977">
<path d="M0 0 C429 0 858 0 1300 0 C1300 322.41 1300 644.82 1300 977 C871 977 442 977 0 977 C0 654.59 0 332.18 0 0 Z " fill="#FEFEFE" transform="translate(0,0)"/>
<path d="M0 0 C1.04414062 0.23847656 2.08828125 0.47695312 3.1640625 0.72265625 C5.82313121 1.3776186 8.39795099 2.14649771 11 3 C12.14597656 3.37382812 13.29195312 3.74765625 14.47265625 4.1328125 C33.23590621 10.56544726 49.8206576 20.31386248 65 33 C65.94101562 33.76957031 66.88203125 34.53914063 67.8515625 35.33203125 C94.11916858 57.80542756 113.17822959 92.17727513 116.125 126.6875 C116.20919189 127.64487061 116.29338379 128.60224121 116.38012695 129.58862305 C116.99805554 137.03444336 117.52556103 144.53214443 117 152 C116 153 116 153 112.67358398 153.11352539 C111.19774444 153.11336629 109.72189931 153.10767314 108.24609375 153.09765625 C107.47064713 153.0962413 106.6952005 153.09482635 105.89625549 153.09336853 C103.40996506 153.08775345 100.9237634 153.07519846 98.4375 153.0625 C96.75586067 153.05748694 95.07421994 153.0529237 93.39257812 153.04882812 C89.26168434 153.03777913 85.13085724 153.02050445 81 153 C80.93006836 152.32646484 80.86013672 151.65292969 80.78808594 150.95898438 C77.59203038 120.80712908 71.05237137 94.55597508 51 71 C50.42765625 70.32324219 49.8553125 69.64648438 49.265625 68.94921875 C31.32355383 49.57363158 2.84500758 36.41982034 -23.40185547 34.78857422 C-57.97767788 33.5004644 -85.88487523 41.4842145 -111.55859375 65.2734375 C-123.30972535 76.42700329 -133.13655184 88.75503478 -139 104 C-139.34289062 104.79664063 -139.68578125 105.59328125 -140.0390625 106.4140625 C-152.282828 136.6028889 -147.74402424 167.63700487 -136 197 C-132.73700496 204.41589782 -128.14275744 210.8373408 -123.33837891 217.32055664 C-121.44821851 219.87836929 -120.01345047 221.95964859 -119 225 C-117.51071041 226.324494 -117.51071041 226.324494 -115.625 227.5625 C-112.08048344 230.09969391 -108.96734744 232.86796386 -105.8125 235.875 C-82.717886 257.03182658 -50.13920266 261.80399989 -20 263 C-20 274.55 -20 286.1 -20 298 C-64.49953899 298.99625834 -105.08028655 288.18137874 -138 257 C-138.76054688 256.28070313 -139.52109375 255.56140625 -140.3046875 254.8203125 C-168.40679749 227.49611559 -183.35903099 190.49059701 -184.40209961 151.61474609 C-184.79299324 115.84123965 -175.66708066 78.47276336 -150.6953125 51.51171875 C-149.19126036 50.00513453 -147.66867697 48.51673837 -146.125 47.05078125 C-144.07977867 45.07699229 -142.2232226 43.03263487 -140.375 40.875 C-122.72021001 20.54403144 -98.80828488 7.9228232 -73 1 C-72.26845703 0.78569336 -71.53691406 0.57138672 -70.78320312 0.35058594 C-47.4863431 -6.39818214 -23.43113246 -5.87188466 0 0 Z " fill="#2187FA" transform="translate(671,155)"/>
<path d="M0 0 C2.12794168 3.19191253 2.26099543 4.07320984 2.31884766 7.74682617 C2.33871735 8.70759567 2.35858704 9.66836517 2.37905884 10.6582489 C2.39061005 11.69270645 2.40216125 12.727164 2.4140625 13.79296875 C2.43342865 14.85413406 2.4527948 15.91529938 2.4727478 17.00862122 C2.53257833 20.40149878 2.57894321 23.7944102 2.625 27.1875 C2.66317655 29.48634301 2.70222809 31.78517167 2.7421875 34.08398438 C2.83828268 39.72252895 2.92332006 45.36115979 3 51 C3.53254395 50.59442871 4.06508789 50.18885742 4.61376953 49.77099609 C5.32130371 49.23555176 6.02883789 48.70010742 6.7578125 48.1484375 C7.80412842 47.35445557 7.80412842 47.35445557 8.87158203 46.54443359 C17.80948915 40.05886346 27.2856078 39.83942232 38 41 C46.13121039 42.72852145 52.94542589 47.37539034 57.53515625 54.32421875 C62.20573433 62.99814946 63.28348453 72.03666509 63.30859375 81.76953125 C63.33372094 83.58268596 63.35911937 85.39583693 63.38476562 87.20898438 C63.41361184 90.02432528 63.43767924 92.83960186 63.45629883 95.6550293 C63.47794219 98.40183408 63.51733535 101.14796132 63.55859375 103.89453125 C63.55876747 105.15400322 63.55876747 105.15400322 63.5589447 106.43891907 C63.63946018 111.19662705 64.14783481 114.01756208 67 118 C67 118.66 67 119.32 67 120 C67.99 120.33 68.98 120.66 70 121 C71.39431504 123.78863007 71.25660094 125.92078868 71 129 C67.24542523 131.50304984 64.28434902 131.28870257 59.9375 131.265625 C59.14980225 131.26753845 58.36210449 131.2694519 57.55053711 131.27142334 C55.88622722 131.27278347 54.22190666 131.26909899 52.55761719 131.26074219 C50.00952331 131.25004 47.46213444 131.26064301 44.9140625 131.2734375 C43.29687344 131.27211587 41.67968483 131.26955342 40.0625 131.265625 C39.29993896 131.26967346 38.53737793 131.27372192 37.75170898 131.27789307 C33.96501326 131.24430937 32.22851734 131.1523449 29 129 C28.4375 126.3125 28.4375 126.3125 29 123 C30.3675993 121.10125356 31.84426049 119.46846226 33.4921875 117.80859375 C37.31261044 113.22606572 37.3074992 108.24406615 37.30078125 102.515625 C37.30720894 101.29308014 37.30720894 101.29308014 37.31376648 100.0458374 C37.31949545 98.324513 37.32002062 96.60316439 37.31567383 94.88183594 C37.31252696 92.27235635 37.3359445 89.66402605 37.36132812 87.0546875 C37.36360285 85.37500141 37.36430381 83.69531231 37.36328125 82.015625 C37.37709587 80.86202484 37.37709587 80.86202484 37.39118958 79.68511963 C37.3325603 72.68240506 35.54217423 66.07931736 32 60 C29.54295238 58.76709799 29.54295238 58.76709799 27 58 C26.34 57.67 25.68 57.34 25 57 C19.61494064 56.33098041 15.16850386 56.66207888 10.5703125 59.65625 C6.92823812 62.77285096 4.50678197 66.47965409 3 71 C2.89993604 72.36433362 2.85181522 73.73289318 2.83886719 75.10083008 C2.82925964 75.92210892 2.8196521 76.74338776 2.80975342 77.58955383 C2.80550354 78.47394638 2.80125366 79.35833893 2.796875 80.26953125 C2.79117493 81.18329025 2.78547485 82.09704926 2.77960205 83.03849792 C2.77015582 84.972675 2.76361957 86.90686815 2.75976562 88.84106445 C2.75007127 91.79081536 2.71904902 94.73986607 2.6875 97.68945312 C2.68096852 99.57030837 2.67571862 101.45116859 2.671875 103.33203125 C2.6533548 104.64951103 2.6533548 104.64951103 2.63446045 105.99360657 C2.65286551 111.08832022 3.16971746 114.58569982 6 119 C6.721875 119.66 7.44375 120.32 8.1875 121 C10 123 10 123 10.4375 126.125 C10.293125 127.07375 10.14875 128.0225 10 129 C6.25995683 131.49336211 3.37438391 131.25481228 -0.94921875 131.1953125 C-1.72183548 131.1924826 -2.49445221 131.18965271 -3.29048157 131.18673706 C-5.75631243 131.17554878 -8.22177906 131.15044703 -10.6875 131.125 C-12.36002079 131.11496843 -14.03254728 131.10584289 -15.70507812 131.09765625 C-19.80352559 131.07561392 -23.90170106 131.04109363 -28 131 C-27.97679687 131.95334229 -27.95359375 132.90668457 -27.9296875 133.88891602 C-27.91164063 135.14373779 -27.89359375 136.39855957 -27.875 137.69140625 C-27.85179687 138.93349854 -27.82859375 140.17559082 -27.8046875 141.45532227 C-28.18814628 148.41461975 -31.6361573 152.94731432 -36.5 157.6875 C-52.28259245 170.40207448 -73.77047131 171.78713603 -93.18896484 169.77294922 C-104.32631267 168.21487465 -113.49090263 164.61335541 -120.72265625 155.8671875 C-123.35361344 152.02132348 -123.44589883 148.53330481 -123 144 C-120.70480482 138.89533354 -117.63726425 135.17983834 -113 132 C-113.55429687 131.55269531 -114.10859375 131.10539063 -114.6796875 130.64453125 C-119.96291068 126.2355781 -122.59771641 123.62055231 -123.375 116.625 C-122.77287778 110.80448524 -120.28780588 106.91219911 -116 103.125 C-113.470305 101.33313271 -112.01996118 100.34845706 -109 100 C-109 99.34 -109 98.68 -109 98 C-109.59554687 97.74863281 -110.19109375 97.49726562 -110.8046875 97.23828125 C-113.28674204 95.83826116 -114.4519342 94.47811103 -116.125 92.1875 C-116.87136719 91.18783203 -116.87136719 91.18783203 -117.6328125 90.16796875 C-121.89103868 83.41563867 -121.97161863 76.22551195 -120.53515625 68.5 C-117.73440461 58.95424294 -111.24164457 52.27619302 -103 47 C-95.83920083 43.24494678 -89.86888242 40.90662677 -81.765625 40.82421875 C-79.94417969 40.78844727 -79.94417969 40.78844727 -78.0859375 40.75195312 C-75.54443747 40.70924971 -73.00272029 40.67785608 -70.4609375 40.65820312 C-61.78050136 40.46092049 -55.90254823 39.62636789 -49.4609375 33.640625 C-48.06289957 32.03837928 -46.6670869 30.43418936 -45.2734375 28.828125 C-43 27 -43 27 -39.90625 26.6015625 C-37 27 -37 27 -34.125 29.125 C-32 32 -32 32 -31.4375 34.9375 C-32.14976254 38.81537381 -33.08511608 41.36850757 -36 44 C-39.8870678 46.26401023 -43.8897315 48.17752246 -48 50 C-47.2575 50.78375 -46.515 51.5675 -45.75 52.375 C-41.04467122 58.07233542 -38.19584359 65.14903989 -38.62890625 72.58984375 C-40.18921091 82.72361191 -43.98817468 90.45512861 -52 97 C-59.79506816 101.99993471 -67.49157158 105.12224953 -76.81640625 105.1328125 C-78.45706055 105.13474609 -78.45706055 105.13474609 -80.13085938 105.13671875 C-81.82952148 105.13091797 -81.82952148 105.13091797 -83.5625 105.125 C-84.69880859 105.12886719 -85.83511719 105.13273438 -87.00585938 105.13671875 C-88.09833984 105.13542969 -89.19082031 105.13414062 -90.31640625 105.1328125 C-91.31099854 105.13168457 -92.30559082 105.13055664 -93.33032227 105.12939453 C-96 105 -96 105 -98.23022461 104.36669922 C-98.81425049 104.24568848 -99.39827637 104.12467773 -100 104 C-102.29827312 105.87938172 -102.29827312 105.87938172 -102.3125 108.9375 C-102.26305742 111.95548768 -102.26305742 111.95548768 -100.6875 113.8125 C-97.58221612 115.99769977 -94.87812654 116.11426545 -91.21240234 116.06591797 C-90.24064056 116.05615936 -89.26887878 116.04640076 -88.26766968 116.03634644 C-86.69271225 116.01448776 -86.69271225 116.01448776 -85.0859375 115.9921875 C-82.85807756 115.97465996 -80.63021267 115.95775277 -78.40234375 115.94140625 C-74.89357777 115.91053734 -71.38506014 115.87513339 -67.87646484 115.82861328 C-64.48792518 115.78603527 -61.09967298 115.76275869 -57.7109375 115.7421875 C-56.67311127 115.72356659 -55.63528503 115.70494568 -54.56600952 115.6857605 C-46.10110952 115.65624508 -39.08843275 117.19815846 -32 122 C-27.14181506 117.79832654 -24.6174793 113.4321598 -23.71949768 106.98660278 C-23.60015133 104.88287759 -23.571566 102.79846503 -23.58007812 100.69140625 C-23.57160858 99.90329559 -23.56313904 99.11518494 -23.55441284 98.30319214 C-23.531196 95.72279299 -23.53001679 93.14299525 -23.53125 90.5625 C-23.5241405 88.75463629 -23.51644036 86.94677482 -23.50817871 85.13891602 C-23.49477009 81.35979936 -23.49314941 77.58089152 -23.49902344 73.80175781 C-23.50492421 68.97309616 -23.47429572 64.14543833 -23.43390656 59.31697083 C-23.40798846 55.58673764 -23.4051557 51.85674513 -23.40879822 48.12643433 C-23.40711164 46.34672518 -23.39751387 44.56700436 -23.37965393 42.78738403 C-22.90720321 29.88055245 -22.90720321 29.88055245 -29 19 C-29.54579712 18.49782959 -30.09159424 17.99565918 -30.65393066 17.47827148 C-32 16 -32 16 -32.1875 13.3125 C-32.0946875 12.1678125 -32.0946875 12.1678125 -32 11 C-9.30147282 -0.95366224 -9.30147282 -0.95366224 0 0 Z " fill="#036EFE" transform="translate(769,686)"/>
<path d="M0 0 C2.83151713 2.83151713 2.25134051 4.68312952 2.25537109 8.64941406 C2.25899155 9.33257187 2.262612 10.01572968 2.26634216 10.71958923 C2.27324291 12.20537224 2.27574033 13.69118064 2.27439499 15.17697906 C2.27343108 17.53130761 2.28635685 19.88517786 2.30337524 22.23944092 C2.34967936 28.93384194 2.37424053 35.62819835 2.38085938 42.32275391 C2.38588329 46.4166116 2.41018206 50.50999441 2.44618607 54.6036911 C2.45596844 56.16171157 2.45832452 57.71979753 2.45301437 59.27783966 C2.44591782 61.46340858 2.46327801 63.6475716 2.48583984 65.83300781 C2.48868988 67.07495911 2.49153992 68.3169104 2.49447632 69.59649658 C3.0991228 73.66735706 4.43565266 75.81496202 7 79 C7.99 79.66 8.98 80.32 10 81 C10.98783194 79.92456217 11.96493943 78.83926783 12.9375 77.75 C13.48277344 77.14671875 14.02804687 76.5434375 14.58984375 75.921875 C16.96393888 72.68626612 17.12692275 69.43979327 17.17700195 65.51025391 C17.18983719 64.62898834 17.20267242 63.74772278 17.21589661 62.8397522 C17.22328354 61.8948996 17.23067047 60.950047 17.23828125 59.9765625 C17.246353 58.99763031 17.25442474 58.01869812 17.26274109 57.01010132 C17.27655762 54.94067138 17.28729062 52.87121889 17.29516602 50.80175781 C17.31239938 47.64344084 17.35631005 44.48616543 17.40039062 41.328125 C17.41051649 39.31511184 17.41903292 37.30208981 17.42578125 35.2890625 C17.44328934 34.34825836 17.46079742 33.40745422 17.47883606 32.43814087 C17.46014481 26.76751722 16.81531461 23.48637642 13 19 C12.2575 18.319375 11.515 17.63875 10.75 16.9375 C9 15 9 15 8.25 12.5625 C9.25940019 9.11371602 11.19452224 7.9891109 14.24609375 6.26953125 C21.51218754 2.91991355 29.88960501 -0.79676901 38 0 C40.68092691 2.68092691 40.38670257 4.39167363 40.625 8.125 C40.73714844 9.76855469 40.73714844 9.76855469 40.8515625 11.4453125 C40.90054688 12.28835938 40.94953125 13.13140625 41 14 C41.69222656 13.22076172 41.69222656 13.22076172 42.3984375 12.42578125 C48.66407591 5.72674888 56.21310584 0.38038852 65.625 -0.23828125 C76.09460038 -0.50525245 85.23611708 0.0606646 93.875 6.6875 C101.15557964 13.6363506 103.96830202 22.89163619 104.25537109 32.75024414 C104.26971204 34.42849771 104.2754127 36.10684257 104.2734375 37.78515625 C104.29371491 39.63346972 104.31456546 41.48177698 104.3359375 43.33007812 C104.35854362 46.20228389 104.37502386 49.07424244 104.38085938 51.9465332 C104.39042254 54.74734493 104.42422342 57.54708667 104.4609375 60.34765625 C104.45336929 61.62141869 104.45336929 61.62141869 104.44564819 62.9209137 C104.54068069 68.73337393 105.76032124 73.12688019 109 78 C109.7425 78.70125 110.485 79.4025 111.25 80.125 C113 82 113 82 113.25 85.25 C113.1675 86.1575 113.085 87.065 113 88 C109.18213887 90.51417071 105.24690064 90.30608443 100.83984375 90.30078125 C100.05356094 90.30506638 99.26727814 90.3093515 98.45716858 90.31376648 C96.79884808 90.31949792 95.14050245 90.32001878 93.48217773 90.31567383 C90.94276305 90.31250656 88.40450572 90.33601161 85.86523438 90.36132812 C84.25260564 90.36360049 82.63997376 90.36430491 81.02734375 90.36328125 C80.26791977 90.372491 79.50849579 90.38170074 78.72605896 90.39118958 C73.4900642 90.34509932 73.4900642 90.34509932 71.03735352 88.61791992 C70 87 70 87 69.375 84.75 C70.24574791 80.91870918 72.47018344 79.28365772 75.37109375 76.74609375 C78.04741588 73.87723046 78.12378989 70.71209895 78.16113281 66.90917969 C78.17074036 66.11445251 78.1803479 65.31972534 78.19024658 64.50091553 C78.19449646 63.64983215 78.19874634 62.79874878 78.203125 61.921875 C78.20882507 61.03647034 78.21452515 60.15106567 78.22039795 59.23883057 C78.22983391 57.36610097 78.23637635 55.49335487 78.24023438 53.62060547 C78.24991796 50.77411435 78.28094543 47.92835237 78.3125 45.08203125 C78.31903294 43.25781676 78.32428227 41.43359714 78.328125 39.609375 C78.3466452 38.34489532 78.3466452 38.34489532 78.36553955 37.05487061 C78.34121399 30.51096756 77.32364674 24.84834117 73.0625 19.625 C68.22555606 15.81407447 64.02646298 15.28854256 58 16 C54.68194858 17.32429273 54.68194858 17.32429273 52 19 C50.515 19.495 50.515 19.495 49 20 C47.8974827 22.16621868 47.8974827 22.16621868 47 25 C46.49259277 26.20261475 45.98518555 27.40522949 45.46240234 28.64428711 C43.81532025 33.04078323 43.56363552 36.96926526 43.6015625 41.62890625 C43.59869232 42.42223862 43.59582214 43.21557098 43.59286499 44.03294373 C43.59083755 45.69766969 43.59627429 47.36242019 43.60888672 49.02709961 C43.62498175 51.55962826 43.60898273 54.09056658 43.58984375 56.62304688 C43.591826 58.25000348 43.5956693 59.87695911 43.6015625 61.50390625 C43.59548981 62.25201065 43.58941711 63.00011505 43.5831604 63.77088928 C43.66647916 70.06544838 45.1063892 75.56333527 49.75 80.125 C52 83 52 83 52 85.75 C51 88 51 88 48 90 C45.277135 90.18385252 42.65918503 90.25611484 39.9375 90.23046875 C39.14980225 90.23001053 38.36210449 90.22955231 37.55053711 90.2290802 C35.88621513 90.22606109 34.2218959 90.21818496 32.55761719 90.20581055 C30.00966381 90.18756919 27.46207433 90.18530083 24.9140625 90.18554688 C23.29687186 90.18063082 21.67968368 90.17480212 20.0625 90.16796875 C19.29993896 90.16685593 18.53737793 90.1657431 17.75170898 90.16459656 C14.57387877 90.13607514 12.03657979 90.01219326 9 89 C8.01 89.495 8.01 89.495 7 90 C4.33627386 90.11105858 1.69948562 90.16410677 -0.96484375 90.16796875 C-1.75395645 90.17129715 -2.54306915 90.17462555 -3.35609436 90.17805481 C-5.02637142 90.18312098 -6.69665862 90.18546323 -8.36694336 90.18530273 C-10.92383485 90.18748832 -13.48029432 90.20564446 -16.03710938 90.22460938 C-17.65885269 90.22754352 -19.28059805 90.22952818 -20.90234375 90.23046875 C-22.05089088 90.24124702 -22.05089088 90.24124702 -23.22264099 90.25224304 C-27.02327773 90.23586757 -28.75913335 90.16057776 -32 88 C-32.5625 85.3125 -32.5625 85.3125 -32 82 C-30.6324007 80.10125356 -29.15573951 78.46846226 -27.5078125 76.80859375 C-23.38130624 71.85892432 -23.69298971 66.43975677 -23.69921875 60.31640625 C-23.69493362 59.3832811 -23.6906485 58.45015594 -23.68623352 57.48875427 C-23.6805023 55.51944793 -23.67998104 53.55012043 -23.68432617 51.58081055 C-23.6874855 48.57629102 -23.66401402 45.57275725 -23.63867188 42.56835938 C-23.63639862 40.6510429 -23.63569551 38.7337238 -23.63671875 36.81640625 C-23.627509 35.92248672 -23.61829926 35.0285672 -23.60881042 34.1075592 C-23.64661022 28.98386839 -24.1386624 25.4289379 -27 21 C-27.886875 20.154375 -28.77375 19.30875 -29.6875 18.4375 C-32 16 -32 16 -32.8125 13.5 C-31.72475178 10.15308239 -29.81098705 9.01723202 -26.8125 7.3359375 C-23.25718073 5.64716085 -19.66369065 4.12468292 -16 2.6875 C-15.33613281 2.42074463 -14.67226563 2.15398926 -13.98828125 1.87915039 C-9.14713676 0.07144897 -5.16931848 -0.41777897 0 0 Z " fill="#026EFE" transform="translate(415,727)"/>
<path d="M0 0 C0.57492187 0.47179687 1.14984375 0.94359375 1.7421875 1.4296875 C8.10458625 7.13673187 11.78268374 13.77851762 12.4453125 22.359375 C12.87317174 32.80964553 11.81708018 41.4746783 5.125 49.875 C2.38217421 52.83473293 -0.54057685 54.94081955 -4 57 C-1.6593385 65.92377195 3.09911081 72.14481603 8.8203125 79.265625 C11.86975683 83.12530817 13.87791621 85.87248077 14 91 C13.67 91.66 13.34 92.32 13 93 C9.72318997 93.74218347 6.34745972 93.80105537 3 94 C1.91976562 94.10054687 0.83953125 94.20109375 -0.2734375 94.3046875 C-1.93246094 94.40136719 -1.93246094 94.40136719 -3.625 94.5 C-5.16027344 94.60828125 -5.16027344 94.60828125 -6.7265625 94.71875 C-12.51609655 93.44753966 -16.251124 89.48499236 -19.60205078 84.72363281 C-21.06293867 82.30939091 -22.42315663 79.86526322 -23.75 77.375 C-24.65761455 75.71403966 -25.56897797 74.05512145 -26.484375 72.3984375 C-26.87334961 71.67317871 -27.26232422 70.94791992 -27.66308594 70.20068359 C-29.2142571 67.64731309 -31.1336528 65.33293399 -33 63 C-37.29 62.34 -41.58 61.68 -46 61 C-46 71.56 -46 82.12 -46 93 C-53.92 93 -61.84 93 -70 93 C-70 60.66 -70 28.32 -70 -5 C-8.16993464 -6.71750182 -8.16993464 -6.71750182 0 0 Z " fill="#2387F9" transform="translate(671,535)"/>
<path d="M0 0 C8.25 0 16.5 0 25 0 C25.66 0.99 26.32 1.98 27 3 C27.63147949 3.277229 28.26295898 3.55445801 28.91357422 3.84008789 C31.88301902 5.49089906 32.77186458 7.592825 34.3828125 10.55859375 C35.29740234 12.22051758 35.29740234 12.22051758 36.23046875 13.91601562 C36.85566406 15.07810547 37.48085938 16.24019531 38.125 17.4375 C39.37683648 19.72828427 40.62940719 22.01866749 41.8828125 24.30859375 C42.43340332 25.32751709 42.98399414 26.34644043 43.55126953 27.39624023 C45.01670381 30.11191016 45.01670381 30.11191016 47 33 C47 33.99 47 34.98 47 36 C53.35712138 31.63916978 56.33230828 25.7796983 60 19.125 C61.18043667 16.99866757 62.36780189 14.87616487 63.5625 12.7578125 C64.07941406 11.8208252 64.59632813 10.88383789 65.12890625 9.91845703 C67.40693153 6.36528452 70.25319517 3.20460564 73 0 C81.25 0 89.5 0 98 0 C98 32.34 98 64.68 98 98 C90.41 98 82.82 98 75 98 C74.34 79.85 73.68 61.7 73 43 C68.05 50.59 63.1 58.18 58 66 C52 75 52 75 48.83984375 75.828125 C45.31568293 74.80044674 44.50471345 73.83041834 42.5625 70.75 C41.97597656 69.83734375 41.38945312 68.9246875 40.78515625 67.984375 C38.46215093 64.10083875 36.17031421 60.2038296 33.96875 56.25 C31.20544106 51.68834715 28.05847167 47.36924524 25 43 C24.34 61.15 23.68 79.3 23 98 C15.41 98 7.82 98 0 98 C0 65.66 0 33.32 0 0 Z " fill="#2287F9" transform="translate(301,530)"/>
<path d="M0 0 C9.075 -0.061875 18.15 -0.12375 27.5 -0.1875 C30.35076172 -0.21481201 33.20152344 -0.24212402 36.13867188 -0.27026367 C38.41536028 -0.2790311 40.69205341 -0.28667443 42.96875 -0.29296875 C44.13696289 -0.30831665 45.30517578 -0.32366455 46.50878906 -0.33947754 C55.68672713 -0.34240667 62.49204246 0.95784282 69.3984375 7.328125 C76.93823171 15.19893456 78.36129135 22.61289569 78.375 33.3125 C78.39949219 34.30701172 78.42398438 35.30152344 78.44921875 36.32617188 C78.48671879 45.84493226 75.67556882 53.19069119 69.19140625 60.20703125 C61.79742814 66.2566497 52.27102638 68.14572694 42.9453125 68.09765625 C41.94516113 68.09515869 40.94500977 68.09266113 39.91455078 68.09008789 C38.66399902 68.08098389 37.41344727 68.07187988 36.125 68.0625 C30.123125 68.0315625 30.123125 68.0315625 24 68 C24 77.9 24 87.8 24 98 C16.08 98 8.16 98 0 98 C0 65.66 0 33.32 0 0 Z " fill="#2388F9" transform="translate(418,530)"/>
<path d="M0 0 C24.75 0 49.5 0 75 0 C75 6.93 75 13.86 75 21 C57.84 21 40.68 21 23 21 C23 26.61 23 32.22 23 38 C37.85 38 52.7 38 68 38 C68 44.93 68 51.86 68 59 C53.15 59 38.3 59 23 59 C23 64.61 23 70.22 23 76 C40.49 76 57.98 76 76 76 C76 82.93 76 89.86 76 97 C73.01435214 98.49282393 70.31016282 98.11916977 66.97998047 98.11352539 C66.24623766 98.11364593 65.51249485 98.11376646 64.75651741 98.11389065 C62.37671015 98.11314307 59.99698079 98.10552191 57.6171875 98.09765625 C56.14982135 98.09618635 54.68245467 98.09516594 53.21508789 98.09460449 C47.76838394 98.08935719 42.32169121 98.07539603 36.875 98.0625 C24.70625 98.041875 12.5375 98.02125 0 98 C0 65.66 0 33.32 0 0 Z " fill="#2487F9" transform="translate(510,530)"/>
<path d="M0 0 C8.25 0 16.5 0 25 0 C25.01458252 1.73491699 25.02916504 3.46983398 25.04418945 5.25732422 C25.09608407 11.02498223 25.16143377 16.79240594 25.23571491 22.55981255 C25.28021694 26.05254633 25.31951558 29.54516888 25.34643555 33.03808594 C25.37770696 37.06474265 25.43248565 41.09079534 25.48828125 45.1171875 C25.49467117 46.35612762 25.5010611 47.59506775 25.50764465 48.87155151 C25.64119467 56.83610632 25.8800909 65.1237493 31.0625 71.5625 C34.80597947 74.33992025 37.60687385 74.2260104 42.25 74.3125 C43.55453125 74.34988281 44.8590625 74.38726563 46.203125 74.42578125 C51.13825516 73.87235616 54.20432347 72.11053488 57.42578125 68.32421875 C57.71839844 67.78410156 58.01101562 67.24398437 58.3125 66.6875 C58.61800781 66.15511719 58.92351562 65.62273437 59.23828125 65.07421875 C61.77684968 58.16150165 61.21453981 50.31242821 61.31640625 43.06640625 C61.33718735 41.83333237 61.35796844 40.60025848 61.37937927 39.32981873 C61.44454023 35.40743352 61.50360385 31.48498378 61.5625 27.5625 C61.60522252 24.89646899 61.64933232 22.23046317 61.69335938 19.56445312 C61.80018726 13.04303417 61.90154836 6.52155057 62 0 C69.92 0 77.84 0 86 0 C86.04534209 8.18912957 86.08196833 16.3781601 86.10362434 24.56738186 C86.1140227 28.37073399 86.12810896 32.17399514 86.15087891 35.97729492 C86.17274917 39.65369106 86.18459825 43.33000016 86.18975449 47.00645638 C86.19342496 48.40294831 86.20059186 49.79943596 86.21146011 51.19589043 C86.30062655 63.13723613 85.12830544 72.58361681 79 83 C78.63777344 83.6290625 78.27554688 84.258125 77.90234375 84.90625 C72.9006507 91.98260029 62.38818646 96.66949284 54.13671875 98.70703125 C39.39771698 100.08365034 26.1942062 100.28767999 13.6875 91.5625 C7.03865421 85.89827628 3.27373877 77.810699 2.125 69.1875 C2.08375 68.135625 2.0425 67.08375 2 66 C1.34 66 0.68 66 0 66 C0 44.22 0 22.44 0 0 Z " fill="#2186F8" transform="translate(197,530)"/>
<path d="M0 0 C11.22 0 22.44 0 34 0 C35 1 35 1 35.12304783 3.18454075 C35.12212604 4.15703235 35.12120424 5.12952394 35.12025452 6.13148499 C35.12162918 7.24352798 35.12300385 8.35557098 35.12442017 9.50131226 C35.11902725 11.34736557 35.11902725 11.34736557 35.11352539 13.23071289 C35.11367142 14.51833023 35.11381744 15.80594757 35.1139679 17.13258362 C35.11425586 20.6737476 35.10835936 24.21487799 35.10139394 27.75603414 C35.09516017 31.45294988 35.09455658 35.14986631 35.09336853 38.8467865 C35.09025528 45.85203899 35.08204199 52.85727595 35.07201904 59.86252159 C35.0608577 67.83578876 35.0553474 75.80905665 35.05032361 83.78232968 C35.03985936 100.18823032 35.02151397 116.59410956 35 133 C23.45 133 11.9 133 0 133 C0 89.11 0 45.22 0 0 Z " fill="#A7A7A7" transform="translate(753,319)"/>
<path d="M0 0 C13 0 13 0 15.98046875 1.99609375 C16.64691406 2.98738281 17.31335938 3.97867188 18 5 C18.41717285 5.59828613 18.8343457 6.19657227 19.26416016 6.81298828 C20.66813077 8.86533621 21.99400951 10.95432662 23.3125 13.0625 C24.28327551 14.58760807 25.2546328 16.11234597 26.2265625 17.63671875 C26.69868164 18.38099121 27.17080078 19.12526367 27.65722656 19.89208984 C32.66181226 27.74837946 37.92434701 35.38038353 43.53125 42.8203125 C45 45 45 45 45 47 C50.33497463 42.27621664 53.92629643 36.42445081 57.8125 30.5 C58.52446533 29.42516357 59.23643066 28.35032715 59.9699707 27.24291992 C64.25305715 20.75034757 68.42361433 14.21891847 72.32421875 7.48828125 C72.87722656 6.66714844 73.43023438 5.84601562 74 5 C74.90685547 3.59814453 74.90685547 3.59814453 75.83203125 2.16796875 C79 0 79 0 93 0 C93 32.01 93 64.02 93 97 C88.71 97 84.42 97 80 97 C79.01 62.35 79.01 62.35 78 27 C71.86569304 36.24063127 71.86569304 36.24063127 65.73681641 45.48486328 C60.00033295 54.12025361 54.08128922 62.60405588 48 71 C42.22669799 70.01082183 39.76424761 65.41387587 36.47900391 60.91894531 C34.89641823 58.67174474 33.34983128 56.40337449 31.8125 54.125 C31.31169922 53.3928125 30.81089844 52.660625 30.29492188 51.90625 C24.71709639 43.70074043 19.37228845 35.34077079 14 27 C13.97494385 28.23226318 13.9498877 29.46452637 13.92407227 30.73413086 C12.99956987 75.83889319 12.99956987 75.83889319 12 97 C8.04 97 4.08 97 0 97 C0 64.99 0 32.98 0 0 Z " fill="#A6A6A6" transform="translate(717,530)"/>
<path d="M0 0 C1.29647461 -0.01836914 1.29647461 -0.01836914 2.61914062 -0.03710938 C12.7698967 -0.06009222 21.63948481 2.56065527 30.1875 8.1875 C33.98603972 12.07076551 35.94377563 15.56267087 36.75 20.9375 C35.9880607 25.33981594 34.51131511 27.81640577 31.4375 31 C28.14072558 32.73996428 25.86693611 32.63156988 22.1875 32.1875 C17.16652691 29.45239097 14.84084905 26.56866157 12.0625 21.625 C9.03997457 16.03298742 9.03997457 16.03298742 4.1875 12.1875 C-0.60458987 11.4052618 -5.21384651 11.29522828 -9.5 13.6875 C-11.36039013 17.23110025 -11.51537498 20.32916499 -10.8125 24.1875 C-6.55000548 33.87498754 5.55357427 37.33313935 14.63208008 41.28759766 C34.12918616 49.79848334 34.12918616 49.79848334 38.453125 58.07421875 C40.24787447 63.23889676 40.12088722 68.54840959 38.3046875 73.68359375 C33.00992111 84.0802708 24.94753166 87.65708438 14.1875 91.1875 C1.55565462 94.75740402 -13.9258655 92.7356743 -25.4609375 86.83203125 C-31.18101622 83.28786288 -36.63940469 78.70678592 -38.8125 72.1875 C-39.40700185 67.17669871 -39.57987969 63.42520917 -36.875 59.0625 C-32.71683239 56.5166831 -29.56491877 56.18966118 -24.8125 57.1875 C-19.05298104 60.47865369 -16.29872612 65.87274552 -12.7734375 71.36328125 C-10.02693315 75.31890404 -7.15163588 78.01793206 -2.8125 80.1875 C1.92694653 80.50408385 6.57197404 80.37860347 11.1875 79.1875 C12.68858124 74.68425627 13.14140558 70.86849546 12.1875 66.1875 C6.73217473 59.0733533 -1.28614472 55.78453657 -9.375 52.5625 C-20.19063093 48.19254811 -30.92274862 43.52268153 -36.125 32.375 C-37.55356055 25.75167381 -37.61550735 20.10484157 -34.1953125 14.1015625 C-28.74989697 6.56412293 -21.42343532 2.97009149 -12.625 0.59765625 C-8.41771233 -0.01590654 -4.24622309 0.00312452 0 0 Z " fill="#046FFE" transform="translate(565.8125,726.8125)"/>
<path d="M0 0 C2.05782056 -0.21692984 4.12226213 -0.37163893 6.1875 -0.5 C7.91033203 -0.63921875 7.91033203 -0.63921875 9.66796875 -0.78125 C13.36167002 0.08479954 13.66092884 0.35328718 15.61328125 3.359375 C16.44423527 4.88753532 17.23786173 6.43638119 18 8 C18.39856201 8.81082031 18.79712402 9.62164063 19.20776367 10.45703125 C20.51233043 13.20446904 21.76090876 15.97243978 23 18.75 C23.96269643 20.88059045 24.92627591 23.01078207 25.890625 25.140625 C26.39400391 26.25501953 26.89738281 27.36941406 27.41601562 28.51757812 C30.15144882 34.53148366 32.95549745 40.51339324 35.75 46.5 C39.76980505 55.1248825 43.69551259 63.77314226 47.43359375 72.5234375 C48.84045289 75.64589295 50.36615821 78.64532104 51.96899414 81.66796875 C55.01348807 87.42695096 56.91377776 91.47301601 56 98 C51.38 98 46.76 98 42 98 C37.82485133 90.42287835 35.86018336 83.58055007 33 75 C15.84 74.67 -1.32 74.34 -19 74 C-19.99 77.63 -20.98 81.26 -22 85 C-23.17079579 87.65497375 -24.32516151 90.1476915 -25.6875 92.6875 C-26.00783203 93.30560547 -26.32816406 93.92371094 -26.65820312 94.56054688 C-27.42935807 96.04530788 -28.2132279 97.5234551 -29 99 C-33.29 99 -37.58 99 -42 99 C-40.76620202 89.12961617 -37.16827103 80.91440463 -33 72 C-32.01110487 69.86356529 -31.02287278 67.72682361 -30.03515625 65.58984375 C-28.0965944 61.40217516 -26.15325762 57.21679956 -24.20344543 53.03436279 C-20.35326066 44.7755237 -16.55118091 36.49517844 -12.76293945 28.20776367 C-9.66158169 21.42811837 -6.52066114 14.66849195 -3.33984375 7.92578125 C-2.14194386 5.30995903 -1.03992469 2.68191105 0 0 Z " fill="#A5A5A5" transform="translate(1105,529)"/>
<path d="M0 0 C59.54923303 0 59.54923303 0 70.51660156 10.87255859 C71.08862305 11.47148926 71.66064453 12.07041992 72.25 12.6875 C72.85553711 13.30963379 73.46107422 13.93176758 74.08496094 14.57275391 C84.98077192 26.04218505 86.60464062 37.44654784 86.3125 52.78125 C85.81790801 64.23929778 81.70872164 75.21725928 73.58984375 83.44140625 C52.60450259 101.76961068 27.32250396 98 0 98 C0 65.66 0 33.32 0 0 Z M13 12 C13 35.76 13 59.52 13 84 C31.76382608 86.34547826 48.0014697 84.69306782 64 74 C66.49080045 71.51879801 67.80010692 69.27553752 69 66 C69.52078125 64.80117188 70.0415625 63.60234375 70.578125 62.3671875 C72.3396083 57.61640385 72.49774599 53.15267166 72.4375 48.125 C72.42992676 47.24239502 72.42235352 46.35979004 72.41455078 45.45043945 C72.25067173 38.97841313 71.51755328 33.57038405 68 28 C67.62230469 27.37351562 67.24460937 26.74703125 66.85546875 26.1015625 C60.87671433 17.8288449 50.44884418 14.36221104 41 12 C31.76 12 22.52 12 13 12 Z " fill="#A6A6A6" transform="translate(925,530)"/>
<path d="M0 0 C23.43 0 46.86 0 71 0 C71 3.96 71 7.92 71 12 C51.86 12 32.72 12 13 12 C13 21.9 13 31.8 13 42 C30.16 42 47.32 42 65 42 C65 45.96 65 49.92 65 54 C47.84 54 30.68 54 13 54 C13 63.9 13 73.8 13 84 C32.47 84 51.94 84 72 84 C72 88.62 72 93.24 72 98 C48.24 98 24.48 98 0 98 C0 65.66 0 33.32 0 0 Z " fill="#A8A8A8" transform="translate(834,530)"/>
<path d="M0 0 C1 1 1 1 1.11352539 2.85766602 C1.10828857 3.64842529 1.10305176 4.43918457 1.09765625 5.25390625 C1.09443359 6.10791016 1.09121094 6.96191406 1.08789062 7.84179688 C1.07532227 9.18854492 1.07532227 9.18854492 1.0625 10.5625 C1.05798828 11.46419922 1.05347656 12.36589844 1.04882812 13.29492188 C1.03700225 15.53001314 1.0205222 17.76497437 1 20 C1.59014893 19.98952637 2.18029785 19.97905273 2.78833008 19.96826172 C5.46301004 19.92667956 8.13762197 19.9006671 10.8125 19.875 C11.74126953 19.85824219 12.67003906 19.84148438 13.62695312 19.82421875 C14.51962891 19.81777344 15.41230469 19.81132813 16.33203125 19.8046875 C17.56530151 19.78897705 17.56530151 19.78897705 18.82348633 19.77294922 C21 20 21 20 24 22 C24.47775163 25.68551257 24.61846565 28.01393927 22.61328125 31.2109375 C18.5376967 34.00109852 14.56110527 33.42519431 9.75 33.25 C8.34621094 33.22292969 8.34621094 33.22292969 6.9140625 33.1953125 C4.60832985 33.14825673 2.30469055 33.08253713 0 33 C0.06722349 39.97462484 0.15711742 46.94869896 0.26245117 53.92285156 C0.29561573 56.29322758 0.32367378 58.66368095 0.34643555 61.03417969 C0.38013688 64.45020376 0.43246209 67.8655243 0.48828125 71.28125 C0.49467117 72.33364868 0.5010611 73.38604736 0.50764465 74.47033691 C0.62973177 80.64084532 1.32307005 85.4040882 4 91 C7.74540875 92.87270438 11.92296053 92.55252318 16 92 C18.51288951 90.85069394 20.71009314 89.54977054 22.9921875 87.99609375 C25 87 25 87 27.2578125 87.34765625 C28.12019531 87.67056641 28.12019531 87.67056641 29 88 C29.99651471 90.60534568 30.10707503 91.71788058 29.1015625 94.3671875 C25.32801003 100.77623693 21.54195609 104.49165895 15 108 C13.9275 108.61875 12.855 109.2375 11.75 109.875 C3.69427382 112.29171785 -4.60741214 112.11743581 -12.1328125 108.203125 C-18.17204625 104.31173589 -21.75962415 98.72112755 -24 92 C-24.98479571 86.46437443 -25.14617722 81.11484472 -25.1328125 75.515625 C-25.13376923 74.61938416 -25.13472595 73.72314331 -25.13571167 72.79974365 C-25.13638937 70.91044036 -25.1345638 69.0211347 -25.13037109 67.13183594 C-25.12504237 64.27273183 -25.13031705 61.41378661 -25.13671875 58.5546875 C-25.13963136 49.66189477 -25.14168442 40.83700154 -24 32 C-24.67111816 32.0191748 -25.34223633 32.03834961 -26.03369141 32.05810547 C-30.8359375 32.1953125 -30.8359375 32.1953125 -33 32 C-35 30 -35 30 -35.37890625 26.671875 C-34.71286703 20.2174743 -29.7856203 16.94684579 -25 13 C-7.92144339 -0.52809623 -7.92144339 -0.52809623 0 0 Z " fill="#046FFE" transform="translate(868,708)"/>
<path d="M0 0 C8.58 0 17.16 0 26 0 C26.09081214 8.78921833 26.16400825 17.57811882 26.20724869 26.36770248 C26.22801478 30.45022942 26.25612795 34.53241534 26.30175781 38.61474609 C26.34561226 42.56350242 26.36921937 46.51193331 26.37950897 50.46091461 C26.38683008 51.95823531 26.40112391 53.45554069 26.42292023 54.95272064 C26.604973 67.99099395 24.80038615 80.96157389 15.3359375 90.71484375 C6.72598349 98.47138822 -1.98241891 99.41726379 -13.25390625 99.20703125 C-23.19322281 98.65772596 -33.84198782 94.3324904 -40.84765625 87.08984375 C-42.36094769 84.34539994 -42.60940542 83.09742907 -42 80 C-40.28978611 77.71197191 -38.65983091 75.77953596 -36.6875 73.75 C-36.18798828 73.20859375 -35.68847656 72.6671875 -35.17382812 72.109375 C-32.82738643 69.62307916 -31.28826316 68.09608772 -28 67 C-26.18417972 68.07311762 -24.42015879 69.23472062 -22.6875 70.4375 C-15.76753878 74.70636224 -9.93663813 74.7396571 -2 74 C-1.17448085 69.64965087 -0.85225599 65.50196071 -0.79467773 61.07666016 C-0.78477814 60.4125412 -0.77487854 59.74842224 -0.76467896 59.06417847 C-0.73332413 56.88917493 -0.70841058 54.71414961 -0.68359375 52.5390625 C-0.66300169 51.02305565 -0.64200465 49.50705424 -0.62062073 47.99105835 C-0.56563249 44.01601599 -0.51612148 40.04092383 -0.46777344 36.0657959 C-0.41738781 32.00345468 -0.36179112 27.94118508 -0.30664062 23.87890625 C-0.19934373 15.91932996 -0.09831854 7.95969226 0 0 Z " fill="#2488FA" transform="translate(155,530)"/>
<path d="M0 0 C11.55 0 23.1 0 35 0 C35 26.73 35 53.46 35 81 C23.45 81 11.9 81 0 81 C0 54.27 0 27.54 0 0 Z " fill="#A7A7A7" transform="translate(707,371)"/>
<path d="M0 0 C2.79954013 2.79954013 2.25730566 4.54385204 2.27124023 8.46582031 C2.27646698 9.12947098 2.28169373 9.79312164 2.28707886 10.47688293 C2.29733019 11.9200936 2.30310124 13.36334135 2.30496025 14.80658722 C2.30861867 17.09370712 2.32533227 19.3803913 2.34571838 21.66741943 C2.40116786 28.17061237 2.43175718 34.67387099 2.45629883 41.17724609 C2.47221267 45.15433735 2.50247738 49.1311227 2.54106331 53.10805511 C2.55268611 54.62141409 2.55864342 56.1348279 2.55874443 57.64823151 C2.55893743 59.77134406 2.57727292 61.89361963 2.59936523 64.01660156 C2.60443588 65.22302307 2.60950653 66.42944458 2.61473083 67.67242432 C3.19684971 72.700194 5.21170361 76.49298335 8.75 80.0625 C11 83 11 83 11 85.75 C10 88 10 88 7 90 C4.27745872 90.1958397 1.65976022 90.28007757 -1.0625 90.265625 C-2.24404663 90.26849518 -2.24404663 90.26849518 -3.44946289 90.27142334 C-5.11377278 90.27278347 -6.77809334 90.26909899 -8.44238281 90.26074219 C-10.99047669 90.25004 -13.53786556 90.26064301 -16.0859375 90.2734375 C-17.70312656 90.27211587 -19.32031517 90.26955342 -20.9375 90.265625 C-21.70006104 90.26967346 -22.46262207 90.27372192 -23.24829102 90.27789307 C-27.03498674 90.24430937 -28.77148266 90.1523449 -32 88 C-32.5625 85.25 -32.5625 85.25 -32 82 C-30.62008961 80.36267513 -29.16950953 79.03612368 -27.5078125 77.6875 C-23.14560867 72.80544804 -23.69310627 66.10674157 -23.69921875 59.96484375 C-23.69493362 59.00856583 -23.6906485 58.0522879 -23.68623352 57.06703186 C-23.68050861 55.05242706 -23.67997636 53.0378016 -23.68432617 51.02319336 C-23.68749317 47.944141 -23.66397953 44.86604362 -23.63867188 41.78710938 C-23.63639938 39.82552204 -23.63569516 37.86393213 -23.63671875 35.90234375 C-23.627509 34.98452621 -23.61829926 34.06670868 -23.60881042 33.12107849 C-23.64403256 28.25139741 -23.81789855 24.94044169 -27 21 C-27.886875 20.175 -28.77375 19.35 -29.6875 18.5 C-32 16 -32 16 -32.8125 13.5 C-31.73113549 10.1727246 -29.86577011 9.01451938 -26.8828125 7.3359375 C-23.13035885 5.59699557 -19.32127527 4.10591863 -15.4375 2.6875 C-14.71763916 2.42074463 -13.99777832 2.15398926 -13.25610352 1.87915039 C-8.72482707 0.30343722 -4.86068669 -0.45971186 0 0 Z " fill="#026EFE" transform="translate(636,727)"/>
<path d="M0 0 C5.589375 -0.020625 11.17875 -0.04125 16.9375 -0.0625 C18.70343506 -0.071604 20.46937012 -0.08070801 22.28881836 -0.09008789 C23.68082605 -0.09300714 25.07283459 -0.09555567 26.46484375 -0.09765625 C27.55835144 -0.1053302 27.55835144 -0.1053302 28.6739502 -0.11315918 C30.44970076 -0.11347011 32.22534208 -0.06228515 34 0 C35 1 35 1 35.12025452 2.90455627 C35.11803391 3.73728561 35.11581329 4.57001495 35.11352539 5.42797852 C35.11344986 6.36887833 35.11337433 7.30977814 35.11329651 8.27919006 C35.10813522 9.30209641 35.10297394 10.32500275 35.09765625 11.37890625 C35.0962413 12.42070541 35.09482635 13.46250458 35.09336853 14.53587341 C35.0877508 17.87811094 35.0751953 21.22028257 35.0625 24.5625 C35.05748728 26.82226466 35.05292398 29.08203037 35.04882812 31.34179688 C35.03862456 36.89457734 35.01905264 42.44721452 35 48 C23.45 48 11.9 48 0 48 C0 32.16 0 16.32 0 0 Z " fill="#A6A6A6" transform="translate(662,404)"/>
<path d="M0 0 C4.95 0 9.9 0 15 0 C15 32.34 15 64.68 15 98 C10.38 98 5.76 98 1 98 C-0.7026057 94.59478859 -0.12864821 90.70607881 -0.11352539 86.96044922 C-0.11367142 86.02381439 -0.11381744 85.08717957 -0.1139679 84.12216187 C-0.11326944 81.01631378 -0.10548015 77.91052515 -0.09765625 74.8046875 C-0.09579183 72.65520256 -0.09436804 70.5057172 -0.09336853 68.35623169 C-0.08954522 62.69104851 -0.07971651 57.02589085 -0.06866455 51.36071777 C-0.05844644 45.58292994 -0.05387005 39.805138 -0.04882812 34.02734375 C-0.03809409 22.6848846 -0.02101989 11.34244442 0 0 Z " fill="#A6A6A6" transform="translate(1031,530)"/>
<path d="M0 0 C24.75 0 49.5 0 75 0 C75 6.93 75 13.86 75 21 C73.35 21 71.7 21 70 21 C69.94392578 19.86111328 69.94392578 19.86111328 69.88671875 18.69921875 C69.82097656 17.70535156 69.75523437 16.71148438 69.6875 15.6875 C69.62949219 14.70136719 69.57148437 13.71523438 69.51171875 12.69921875 C68.93835873 9.67485405 68.19720398 9.0087039 66 7 C66 6.01 66 5.02 66 4 C65.030625 4.495 64.06125 4.99 63.0625 5.5 C58.77296222 7.33961884 54.61055314 7.65621551 50 7 C49.32710937 6.65710938 48.65421875 6.31421875 47.9609375 5.9609375 C44.86776148 4.44515802 42.27478307 5.32032804 39 6 C38.67 6.33 38.34 6.66 38 7 C35.64686445 7.07271741 33.29166332 7.08370868 30.9375 7.0625 C29.64714844 7.05347656 28.35679687 7.04445313 27.02734375 7.03515625 C26.02832031 7.02355469 25.02929688 7.01195312 24 7 C24 5.68 24 4.36 24 3 C21.68632778 3.64185745 19.3741043 4.28827392 17.0625 4.9375 C16.40314453 5.11990234 15.74378906 5.30230469 15.06445312 5.49023438 C11.76178827 6.22596101 11.76178827 6.22596101 9 8 C8.7888658 9.55711476 8.63107577 11.12161266 8.5 12.6875 C8.24116088 15.66202823 7.90980792 18.4427611 7.3125 21.375 C6.76166059 23.95286078 6.76166059 23.95286078 7.9375 25.875 C9.64186858 29.28373715 9.24406811 32.21694426 9 36 C8.34 36.66 7.68 37.32 7 38 C6.60270462 42.61608681 6.60270462 42.61608681 8.00143433 46.92279053 C9.19502615 49.40569206 9.24150447 51.11414989 9.22705078 53.86035156 C9.22680908 54.83439941 9.22656738 55.80844727 9.22631836 56.81201172 C9.21608643 57.8279541 9.20585449 58.84389648 9.1953125 59.890625 C9.19329834 60.83019043 9.19128418 61.76975586 9.18920898 62.73779297 C9.1787582 66.24191176 9.1508356 69.74596087 9.125 73.25 C9.08375 81.0875 9.0425 88.925 9 97 C30.45 97 51.9 97 74 97 C74 97.33 74 97.66 74 98 C49.58 98 25.16 98 0 98 C0 65.66 0 33.32 0 0 Z " fill="#3582E0" transform="translate(510,530)"/>
<path d="M0 0 C6.39343623 2.89514093 9.10719318 8.20110351 12.11328125 14.234375 C14.26103031 20.93308131 14.28932239 30.05456281 12.08984375 36.78515625 C9.61167148 41.04825003 6.76691227 43.47458807 2 45 C-3.80864658 45.73928229 -7.45448889 44.44322467 -12 41 C-18.13717796 35.03816999 -20.24977656 27.2128026 -20.5 18.875 C-20.25397804 11.3303265 -18.84236419 6.70701351 -13.375 1.5 C-8.78252602 -0.54109955 -4.94746658 -0.77480716 0 0 Z " fill="#F6F8FA" transform="translate(692,737)"/>
<path d="M0 0 C2.44784958 -0.07313271 4.8946313 -0.1214274 7.34326172 -0.15869141 C8.43864258 -0.19071655 8.43864258 -0.19071655 9.55615234 -0.22338867 C13.98373233 -0.25207822 16.76680555 0.35454122 20.28076172 3.09130859 C21.85531911 6.24042338 21.6287529 8.61139675 21.28076172 12.09130859 C17.9568365 17.49268707 14.36247705 19.5626315 8.28076172 21.09130859 C-2.94187193 23.38758234 -16.54793422 23.93074394 -26.71923828 18.09130859 C-30.06395822 15.21329376 -30.60737799 13.88831318 -31.21923828 9.52880859 C-30.64503408 5.58115474 -29.83624104 4.47489894 -26.71923828 2.09130859 C-24.41536328 0.93937109 -22.91099771 0.89301273 -20.34423828 0.77490234 C-19.44954834 0.73268555 -18.5548584 0.69046875 -17.63305664 0.64697266 C-16.67149658 0.60797852 -15.70993652 0.56898438 -14.71923828 0.52880859 C-13.24692749 0.46838379 -13.24692749 0.46838379 -11.74487305 0.40673828 C-7.8303688 0.25619259 -3.915173 0.13146657 0 0 Z " fill="#F3F5F7" transform="translate(697.71923828125,822.90869140625)"/>
<path d="M0 0 C0.66 0 1.32 0 2 0 C7.19534314 10.57669239 12.23315365 21.18582471 16.625 32.125 C17.13836914 33.3939209 17.13836914 33.3939209 17.66210938 34.68847656 C20 40.61583128 20 40.61583128 20 44 C7.13 44 -5.74 44 -19 44 C-18.04992748 39.24963739 -16.48395844 35.53377575 -14.375 31.25 C-11.10033466 24.47052962 -8.11252538 17.624643 -5.34716797 10.62207031 C-3.84867342 6.8717397 -2.33939569 3.30720049 0 0 Z " fill="#FCFCFC" transform="translate(1111,547)"/>
<path d="M0 0 C3.320625 -0.061875 6.64125 -0.12375 10.0625 -0.1875 C11.09511963 -0.21481201 12.12773926 -0.24212402 13.19165039 -0.27026367 C20.12464877 -0.33245802 24.55360795 0.79077433 30.4375 4.5625 C32.91043487 8.4202784 32.76099686 12.55056789 32 17 C30.52183335 20.43381669 29.45705314 21.74432801 26.171875 23.58203125 C16.87653231 26.92453462 9.8346474 27.46389846 0 27 C0 18.09 0 9.18 0 0 Z " fill="#F9FCFE" transform="translate(442,551)"/>
<path d="M0 0 C5.7234375 -0.12375 5.7234375 -0.12375 11.5625 -0.25 C12.75174072 -0.28641602 13.94098145 -0.32283203 15.16625977 -0.36035156 C22.94175261 -0.44151674 26.73205384 0.76405722 32.90625 5.4453125 C35.26710683 8.80110185 34.66846313 13.12538961 34 17 C31.45018679 20.39975095 28.91051474 22.41891293 25 24 C22.25097656 24.22705078 22.25097656 24.22705078 19.140625 24.1953125 C18.02558594 24.18886719 16.91054688 24.18242188 15.76171875 24.17578125 C14.60285156 24.15902344 13.44398438 24.14226563 12.25 24.125 C11.07566406 24.11597656 9.90132812 24.10695313 8.69140625 24.09765625 C5.79418371 24.0741016 2.89706604 24.03823108 0 24 C0 16.08 0 8.16 0 0 Z " fill="#FDFDFE" transform="translate(625,551)"/>
<path d="M0 0 C3.8026029 2.0050088 5.61790841 3.42686262 8 7 C8.70157651 12.9132877 7.88760707 16.33972444 4.5 21.23828125 C1.01783637 25.32800989 -3.19767242 27.69634221 -8.5234375 28.2734375 C-16.29459187 28.55021834 -16.29459187 28.55021834 -20.125 25.5625 C-20.74375 24.716875 -21.3625 23.87125 -22 23 C-22.33 22.67 -22.66 22.34 -23 22 C-23.62741826 16.03952652 -22.8490707 12.68404254 -19.4296875 7.7578125 C-14.16507328 1.28492617 -8.15271199 -1.17274713 0 0 Z " fill="#056FFE" transform="translate(631,688)"/>
<path d="M0 0 C3.18500291 1.62145603 5.22111096 2.97328264 7.375 5.8125 C8.69841677 10.4444587 8.60662347 13.83341641 6.375 18.125 C2.76794155 22.49143918 -1.9285094 27.62372053 -7.7421875 28.3359375 C-16.22324133 28.4416863 -16.22324133 28.4416863 -20.1875 26.1875 C-23.0609511 22.71954178 -23.35460053 19.49039894 -23.2734375 15.05078125 C-22.50971093 9.32283198 -17.84114721 5.72712046 -13.68359375 2.19921875 C-9.6118789 -0.70105145 -4.78639124 -0.59625693 0 0 Z " fill="#046FFE" transform="translate(410,688)"/>
<path d="M0 0 C8.25 0 16.5 0 25 0 C25 0.33 25 0.66 25 1 C23.35 1 21.7 1 20 1 C19.67 2.65 19.34 4.3 19 6 C17.84371094 5.94779297 17.84371094 5.94779297 16.6640625 5.89453125 C15.15972656 5.85392578 15.15972656 5.85392578 13.625 5.8125 C12.62726563 5.77769531 11.62953125 5.74289062 10.6015625 5.70703125 C9.31378906 5.85205078 9.31378906 5.85205078 8 6 C5.57838821 9.63241769 5.73668005 12.30995016 5.8125 16.5 C5.8134668 17.51513672 5.8134668 17.51513672 5.81445312 18.55078125 C5.84178397 21.63005603 6.01967491 24.05902474 7 27 C7.11632729 28.51766539 7.17496239 30.0404346 7.1875 31.5625 C7.20167969 32.34753906 7.21585937 33.13257813 7.23046875 33.94140625 C7 36 7 36 5 38 C4.64138302 42.07343052 4.64138302 42.07343052 6.00390625 45.83203125 C7.28282434 48.61555885 7.23061705 50.75902893 7.1875 53.8125 C7.18105469 54.80894531 7.17460937 55.80539062 7.16796875 56.83203125 C7 60 7 60 6.49560547 63.24511719 C6.00447238 66.96611566 5.88624563 70.49523264 5.90234375 74.24609375 C5.9037587 74.90207047 5.90517365 75.55804718 5.90663147 76.23390198 C5.91216969 78.30181702 5.92470998 80.36961842 5.9375 82.4375 C5.94252301 83.85090988 5.9470845 85.26432148 5.95117188 86.67773438 C5.96126229 90.11856718 5.98084875 93.55915838 6 97 C11.61 97 17.22 97 23 97 C23 97.33 23 97.66 23 98 C15.41 98 7.82 98 0 98 C0 65.66 0 33.32 0 0 Z " fill="#367AD3" transform="translate(301,530)"/>
<path d="M0 0 C0.33 0 0.66 0 1 0 C1 32.01 1 64.02 1 97 C1.99 97 2.98 97 4 97 C3.96970703 96.01531738 3.93941406 95.03063477 3.90820312 94.01611328 C2.90298042 60.97630961 2.90298042 60.97630961 2.875 44.75 C2.87048828 43.66348145 2.86597656 42.57696289 2.86132812 41.45751953 C2.86326172 40.47638184 2.86519531 39.49524414 2.8671875 38.484375 C2.86887939 37.21158691 2.86887939 37.21158691 2.87060547 35.91308594 C3 34 3 34 4 33 C4.27953219 30.9412232 4.44734351 28.88271568 4.62109375 26.8125 C4.74613281 26.214375 4.87117187 25.61625 5 25 C5.66 24.67 6.32 24.34 7 24 C9.61382886 27.92074329 9.29386386 31.44511017 9 36 C8.34 36.66 7.68 37.32 7 38 C6.60270462 42.61608681 6.60270462 42.61608681 8.00143433 46.92279053 C9.19502615 49.40569206 9.24150447 51.11414989 9.22705078 53.86035156 C9.22680908 54.83439941 9.22656738 55.80844727 9.22631836 56.81201172 C9.21608643 57.8279541 9.20585449 58.84389648 9.1953125 59.890625 C9.19329834 60.83019043 9.19128418 61.76975586 9.18920898 62.73779297 C9.1787582 66.24191176 9.1508356 69.74596087 9.125 73.25 C9.08375 81.0875 9.0425 88.925 9 97 C30.45 97 51.9 97 74 97 C74 97.33 74 97.66 74 98 C49.58 98 25.16 98 0 98 C0 65.66 0 33.32 0 0 Z " fill="#468FE4" transform="translate(510,530)"/>
<path d="M0 0 C8.25 0 16.5 0 25 0 C25.33 20.79 25.66 41.58 26 63 C24.515 63.495 24.515 63.495 23 64 C23 44.86 23 25.72 23 6 C18.05 6.66 13.1 7.32 8 8 C6.35 8 4.7 8 3 8 C3.00523682 8.93980713 3.01047363 9.87961426 3.01586914 10.84790039 C3.10465951 29.26122545 3.05847571 47.60898456 2 66 C1.34 66 0.68 66 0 66 C0 44.22 0 22.44 0 0 Z " fill="#3380DB" transform="translate(197,530)"/>
<path d="M0 0 C2.45499776 -0.06520958 4.90958035 -0.109527 7.3651123 -0.14892578 C8.1076828 -0.17216919 8.8502533 -0.1954126 9.61532593 -0.21936035 C14.11302103 -0.26481982 16.86285493 0.37009616 20.4822998 3.06982422 C17.77575957 5.89938901 16.4936023 7.03732735 12.4432373 7.16748047 C11.25987793 7.15587891 10.07651855 7.14427734 8.8572998 7.13232422 C7.66878418 7.12330078 6.48026855 7.11427734 5.2557373 7.10498047 C4.34050293 7.09337891 3.42526855 7.08177734 2.4822998 7.06982422 C2.4822998 6.07982422 2.4822998 5.08982422 2.4822998 4.06982422 C1.76880371 4.50294922 1.76880371 4.50294922 1.04089355 4.94482422 C-6.33671283 8.85780882 -13.38249603 8.4556837 -21.5177002 8.06982422 C-21.8477002 7.07982422 -22.1777002 6.08982422 -22.5177002 5.06982422 C-23.3014502 5.56482422 -24.0852002 6.05982422 -24.8927002 6.56982422 C-29.56691861 8.50398356 -33.53212401 8.33585299 -38.5177002 8.06982422 C-38.5177002 5.75982422 -38.5177002 3.44982422 -38.5177002 1.06982422 C-33.72043366 0.92395876 -28.9230755 0.78175858 -24.12561035 0.64257812 C-22.50253556 0.595019 -20.87948697 0.54655457 -19.25646973 0.49707031 C-14.48911911 0.3520671 -9.72185003 0.225671 -4.95336914 0.12402344 C-3.30213739 0.08727974 -1.65100572 0.04578789 0 0 Z " fill="#3980D7" transform="translate(639.5177001953125,528.93017578125)"/>
<path d="M0 0 C0.33 0 0.66 0 1 0 C1.33 20.79 1.66 41.58 2 63 C2.495 54.09 2.495 54.09 3 45 C3.99 44.505 3.99 44.505 5 44 C7.02912201 47.3604827 7.24249379 49.91793994 7.1875 53.8125 C7.18105469 54.80894531 7.17460937 55.80539062 7.16796875 56.83203125 C7 60 7 60 6.49560547 63.24511719 C6.00447238 66.96611566 5.88624563 70.49523264 5.90234375 74.24609375 C5.9037587 74.90207047 5.90517365 75.55804718 5.90663147 76.23390198 C5.91216969 78.30181702 5.92470998 80.36961842 5.9375 82.4375 C5.94252301 83.85090988 5.9470845 85.26432148 5.95117188 86.67773438 C5.96126229 90.11856718 5.98084875 93.55915838 6 97 C11.61 97 17.22 97 23 97 C23 97.33 23 97.66 23 98 C15.41 98 7.82 98 0 98 C0 65.66 0 33.32 0 0 Z " fill="#4188E0" transform="translate(301,530)"/>
<path d="M0 0 C7.92 0 15.84 0 24 0 C24 0.99 24 1.98 24 3 C22.69675781 3.16435547 22.69675781 3.16435547 21.3671875 3.33203125 C20.21476562 3.49058594 19.06234375 3.64914062 17.875 3.8125 C16.73804688 3.96332031 15.60109375 4.11414063 14.4296875 4.26953125 C10.87343505 5.02695632 8.20724812 6.32554101 5 8 C4.98018066 9.06734375 4.96036133 10.1346875 4.93994141 11.234375 C4.86264249 15.27526605 4.77414192 19.31585357 4.68261719 23.35644531 C4.64483142 25.09010738 4.60990108 26.82383455 4.578125 28.55761719 C4.36895197 39.83988751 3.65944095 50.83046092 2 62 C1.34 62 0.68 62 0 62 C0 41.54 0 21.08 0 0 Z " fill="#3C80D2" transform="translate(259,530)"/>
<path d="M0 0 C-0.99 1.485 -0.99 1.485 -2 3 C-2 2.34 -2 1.68 -2 1 C-2.84304688 1.3609375 -3.68609375 1.721875 -4.5546875 2.09375 C-5.65039062 2.5578125 -6.74609375 3.021875 -7.875 3.5 C-9.51082031 4.19609375 -9.51082031 4.19609375 -11.1796875 4.90625 C-14 6 -14 6 -16 6 C-15.97905273 7.28575928 -15.95810547 8.57151855 -15.93652344 9.89624023 C-15.8637354 14.69885985 -15.8180597 19.50143139 -15.78027344 24.30444336 C-15.76024603 26.37711811 -15.73301589 28.449737 -15.69824219 30.5222168 C-15.649332 33.51364996 -15.62694207 36.50433155 -15.609375 39.49609375 C-15.58872986 40.41208847 -15.56808472 41.32808319 -15.54681396 42.27183533 C-15.54390175 50.75652328 -18.42652279 57.15615763 -23.25 64.0625 C-24.03117187 65.19365234 -24.03117187 65.19365234 -24.828125 66.34765625 C-25.21484375 66.89292969 -25.6015625 67.43820312 -26 68 C-26.99 67.67 -27.98 67.34 -29 67 C-28.525625 65.989375 -28.05125 64.97875 -27.5625 63.9375 C-26.0063672 60.34077795 -25.3987054 56.90731291 -25 53 C-24.67 53 -24.34 53 -24 53 C-24 54.98 -24 56.96 -24 59 C-23.34 59 -22.68 59 -22 59 C-21.34367467 50.40946395 -20.9345871 41.88083307 -20.9296875 33.265625 C-20.91993436 31.60416264 -20.90951386 29.94270407 -20.8984375 28.28125 C-20.88158515 25.7395195 -20.87549084 23.19989606 -20.90039062 20.65820312 C-20.92126749 18.15108155 -20.8982789 15.6475701 -20.8671875 13.140625 C-20.88457977 12.3802594 -20.90197205 11.6198938 -20.91989136 10.83648682 C-20.87060547 8.68847656 -20.87060547 8.68847656 -20 5 C-14.19421984 -0.17947367 -7.3036837 -0.12379125 0 0 Z " fill="#2F84E7" transform="translate(283,533)"/>
<path d="M0 0 C8.58 0 17.16 0 26 0 C26 2.31 26 4.62 26 7 C18.08 7 10.16 7 2 7 C2 26.8 2 46.6 2 67 C1.34 67 0.68 67 0 67 C0 44.89 0 22.78 0 0 Z " fill="#3683D9" transform="translate(155,530)"/>
<path d="M0 0 C2.64 0 5.28 0 8 0 C7.71990585 0.52211563 7.43981171 1.04423126 7.15122986 1.58216858 C4.0631579 7.81807667 3.35052024 13.09470837 3.25390625 19.99609375 C3.22518936 21.06621201 3.19647247 22.13633026 3.16688538 23.23887634 C2.84129767 37.12886903 2.88690698 51.02811725 2.93133545 64.92102051 C2.94179944 68.55606475 2.94618101 72.19111672 2.95117188 75.82617188 C2.96170992 82.88413241 2.97864005 89.94206317 3 97 C2.01 97 1.02 97 0 97 C0 64.99 0 32.98 0 0 Z " fill="#4280C7" transform="translate(511,530)"/>
<path d="M0 0 C8.70375 -0.061875 17.4075 -0.12375 26.375 -0.1875 C30.49814697 -0.22846802 30.49814697 -0.22846802 34.70458984 -0.27026367 C36.87336792 -0.27902211 39.0421509 -0.28666756 41.2109375 -0.29296875 C42.3450708 -0.30831665 43.4792041 -0.32366455 44.64770508 -0.33947754 C45.7235083 -0.33984009 46.79931152 -0.34020264 47.90771484 -0.34057617 C49.31336197 -0.35056892 49.31336197 -0.35056892 50.74740601 -0.36076355 C51.49076202 -0.24171158 52.23411804 -0.12265961 53 0 C53.66 0.99 54.32 1.98 55 3 C44.38940185 3.88553427 33.8684435 4.09075491 23.22290039 3.96289062 C15.69437118 3.90015791 8.57787246 4.41708673 1 5 C1 35.36 1 65.72 1 97 C0.67 97 0.34 97 0 97 C0 64.99 0 32.98 0 0 Z " fill="#367AD1" transform="translate(419,530)"/>
<path d="M0 0 C0.33 0 0.66 0 1 0 C1 31.02 1 62.04 1 94 C-6.59 94 -14.18 94 -22 94 C-22.66 75.19 -23.32 56.38 -24 37 C-23.34 37 -22.68 37 -22 37 C-21.34 35.68 -20.68 34.36 -20 33 C-20 52.8 -20 72.6 -20 93 C-13.4 93 -6.8 93 0 93 C0 62.31 0 31.62 0 0 Z " fill="#4B97EF" transform="translate(398,534)"/>
<path d="M0 0 C1.32 0 2.64 0 4 0 C4 2.64 4 5.28 4 8 C8.21749219 8.07419134 12.43463811 8.1286204 16.65258789 8.16479492 C18.08722552 8.17987589 19.52181708 8.2003438 20.95629883 8.22631836 C23.01915859 8.26273437 25.08140858 8.27973243 27.14453125 8.29296875 C28.38565674 8.3086792 29.62678223 8.32438965 30.90551758 8.34057617 C33.99894427 8.27621502 33.99894427 8.27621502 35.9284668 6.48168945 C36.28207275 5.99273193 36.63567871 5.50377441 37 5 C37.04241723 7.33294775 37.04092937 9.66702567 37 12 C36 13 36 13 32.67358398 13.11352539 C31.19774444 13.11336629 29.72189931 13.10767314 28.24609375 13.09765625 C27.47064713 13.0962413 26.6952005 13.09482635 25.89625549 13.09336853 C23.40996506 13.08775345 20.9237634 13.07519846 18.4375 13.0625 C16.75586067 13.05748694 15.07421994 13.0529237 13.39257812 13.04882812 C9.26168434 13.03777913 5.13085724 13.02050445 1 13 C0.67 8.71 0.34 4.42 0 0 Z " fill="#2B82E8" transform="translate(751,295)"/>
<path d="M0 0 C0.33 0.99 0.66 1.98 1 3 C1.99 2.67 2.98 2.34 4 2 C6.51368055 1.9153183 8.99869374 1.88398115 11.51171875 1.90234375 C12.23994339 1.9037587 12.96816803 1.90517365 13.71846008 1.90663147 C16.04151539 1.91222341 18.36447388 1.92477438 20.6875 1.9375 C22.26367048 1.94251604 23.83984248 1.94707877 25.41601562 1.95117188 C29.27738098 1.9621902 33.13867408 1.97944926 37 2 C36 5 36 5 34.421875 6.1796875 C31.0374856 7.32601294 27.77604471 7.21165138 24.25 7.125 C23.55261719 7.11597656 22.85523438 7.10695313 22.13671875 7.09765625 C20.42433042 7.07419888 18.71211996 7.03833104 17 7 C16.67 6.01 16.34 5.02 16 4 C15.21625 4.495 14.4325 4.99 13.625 5.5 C8.95078158 7.43415935 4.98557619 7.26602877 0 7 C0 4.69 0 2.38 0 0 Z " fill="#3283E6" transform="translate(601,530)"/>
<path d="M0 0 C8.25 0 16.5 0 25 0 C25 10.56 25 21.12 25 32 C24.67 32 24.34 32 24 32 C23.67 22.43 23.34 12.86 23 3 C16.07 3 9.14 3 2 3 C1.67 23.79 1.34 44.58 1 66 C0.67 66 0.34 66 0 66 C0 44.22 0 22.44 0 0 Z " fill="#5799E3" transform="translate(197,530)"/>
<path d="M0 0 C0.66 0 1.32 0 2 0 C2.03738281 0.61488281 2.07476562 1.22976563 2.11328125 1.86328125 C2.17902344 2.67152344 2.24476563 3.47976563 2.3125 4.3125 C2.37050781 5.11300781 2.42851562 5.91351563 2.48828125 6.73828125 C3.08968893 9.39641138 4.02747039 10.19831941 6 12 C6.5 14.4375 6.5 14.4375 6 17 C3.6875 19.3125 3.6875 19.3125 1 21 C0.01 21 -0.98 21 -2 21 C-2.22424141 13.63740707 -1.90120099 7.12950371 0 0 Z " fill="#2D84E4" transform="translate(492,260)"/>
<path d="M0 0 C1.32 0 2.64 0 4 0 C4 2.64 4 5.28 4 8 C5.32 8.33 6.64 8.66 8 9 C8 9.66 8 10.32 8 11 C8.59683594 10.98839844 9.19367187 10.97679687 9.80859375 10.96484375 C18.56810313 10.87373444 27.26438425 11.42650119 36 12 C36 12.33 36 12.66 36 13 C24.45 13 12.9 13 1 13 C0.67 8.71 0.34 4.42 0 0 Z " fill="#3E82D3" transform="translate(751,295)"/>
<path d="M0 0 C0 0.33 0 0.66 0 1 C-1.14339844 1.06058594 -2.28679688 1.12117187 -3.46484375 1.18359375 C-4.95574305 1.26798428 -6.44662775 1.35263302 -7.9375 1.4375 C-9.06961914 1.49647461 -9.06961914 1.49647461 -10.22460938 1.55664062 C-13.91944187 1.44038024 -13.91944187 1.44038024 -17 3 C-19.66426685 3.16003488 -22.30560428 3.25942889 -24.97265625 3.31640625 C-26.16912025 3.3475779 -26.16912025 3.3475779 -27.38975525 3.37937927 C-29.94724611 3.44496158 -32.5048428 3.50379967 -35.0625 3.5625 C-36.79232882 3.60567699 -38.52214679 3.64929101 -40.25195312 3.69335938 C-44.5011926 3.80065172 -48.7505389 3.90189426 -53 4 C-53 3.01 -53 2.02 -53 1 C-14.92907039 -0.19388403 -14.92907039 -0.19388403 0 0 Z " fill="#488CDE" transform="translate(655,529)"/>
<path d="M0 0 C0.33 0 0.66 0 1 0 C1 2.31 1 4.62 1 7 C-6.92 7 -14.84 7 -23 7 C-23 6.01 -23 5.02 -23 4 C-15.66236293 2.82597807 -8.41834582 2.90622877 -1 3 C-0.67 2.01 -0.34 1.02 0 0 Z " fill="#2F87EA" transform="translate(180,530)"/>
<path d="M0 0 C1.32 0 2.64 0 4 0 C4 7.26 4 14.52 4 22 C2.68 21.67 1.36 21.34 0 21 C0 14.07 0 7.14 0 0 Z " fill="#2D82E7" transform="translate(621,553)"/>
<path d="M0 0 C0.33 0.66 0.66 1.32 1 2 C-4.5102485 4.32492213 -9.51112885 4.23374511 -15.375 4.125 C-16.76525391 4.11146484 -16.76525391 4.11146484 -18.18359375 4.09765625 C-20.45600077 4.07422937 -22.7278618 4.04142748 -25 4 C-25.33 3.34 -25.66 2.68 -26 2 C-17.24996282 0.3960652 -8.89252296 -0.26197285 0 0 Z " fill="#2B84ED" transform="translate(446,533)"/>
<path d="M0 0 C2.64 0 5.28 0 8 0 C7.58427734 0.8353125 7.58427734 0.8353125 7.16015625 1.6875 C5.2891699 5.62922212 3.80695525 9.06025843 3.4375 13.4375 C3.2209375 15.2009375 3.2209375 15.2009375 3 17 C2.01 17.66 1.02 18.32 0 19 C0 12.73 0 6.46 0 0 Z " fill="#487DBF" transform="translate(511,530)"/>
<path d="M0 0 C0.73798828 0.03351562 1.47597656 0.06703125 2.23632812 0.1015625 C2.98591797 0.11960937 3.73550781 0.13765625 4.5078125 0.15625 C6.35536523 0.20332141 8.20225971 0.27506484 10.04882812 0.3515625 C10.04882812 1.3415625 10.04882812 2.3315625 10.04882812 3.3515625 C8.76298828 3.51591797 8.76298828 3.51591797 7.45117188 3.68359375 C1.17449035 4.55397912 -4.29342598 5.45690181 -9.95117188 8.3515625 C-8.81476761 1.9876986 -6.62054222 -0.11982882 0 0 Z " fill="#3C80D7" transform="translate(272.951171875,529.6484375)"/>
<path d="M0 0 C5.94 0 11.88 0 18 0 C17.67 0.99 17.34 1.98 17 3 C16.18015625 3.12117187 15.3603125 3.24234375 14.515625 3.3671875 C13.43796875 3.53476562 12.3603125 3.70234375 11.25 3.875 C10.18265625 4.03742187 9.1153125 4.19984375 8.015625 4.3671875 C5.32291129 4.93223882 3.36427561 5.63422914 1 7 C0.67 4.69 0.34 2.38 0 0 Z " fill="#427ECA" transform="translate(302,530)"/>
<path d="M0 0 C1.98 0 3.96 0 6 0 C6 6.93 6 13.86 6 21 C5.34 21 4.68 21 4 21 C3.87882813 19.98679687 3.75765625 18.97359375 3.6328125 17.9296875 C3.46386217 16.5780849 3.29457331 15.22652458 3.125 13.875 C3.04636719 13.20984375 2.96773437 12.5446875 2.88671875 11.859375 C2.35611974 7.69621356 1.45813446 3.93328708 0 0 Z " fill="#548ACE" transform="translate(579,530)"/>
<path d="M0 0 C8.25 0 16.5 0 25 0 C25 1.32 25 2.64 25 4 C23.54176788 4.0270043 22.08339325 4.04639787 20.625 4.0625 C19.81289063 4.07410156 19.00078125 4.08570313 18.1640625 4.09765625 C16 4 16 4 14 3 C11.63049479 2.61076473 9.2542428 2.2619422 6.875 1.9375 C4.95300781 1.67259766 4.95300781 1.67259766 2.9921875 1.40234375 C2.00476563 1.26957031 1.01734375 1.13679687 0 1 C0 0.67 0 0.34 0 0 Z " fill="#3B86D7" transform="translate(374,530)"/>
<path d="M0 0 C0.66 0 1.32 0 2 0 C4.14336161 3.4766338 4.21277626 6.21229195 4.125 10.25 C4.10695313 11.32765625 4.08890625 12.4053125 4.0703125 13.515625 C4.04710937 14.33546875 4.02390625 15.1553125 4 16 C3.01 16 2.02 16 1 16 C-0.50156874 12.99686252 -0.09281204 10.20932478 -0.0625 6.875 C-0.05347656 5.59367187 -0.04445313 4.31234375 -0.03515625 2.9921875 C-0.02355469 2.00476563 -0.01195312 1.01734375 0 0 Z " fill="#2D81DF" transform="translate(780,258)"/>
<path d="M0 0 C3.355762 0.61975785 5.52263528 1.84462848 8.25 3.875 C8.95640625 4.38804687 9.6628125 4.90109375 10.390625 5.4296875 C10.92171875 5.94789063 11.4528125 6.46609375 12 7 C12 7.99 12 8.98 12 10 C11.01 10 10.02 10 9 10 C9 9.01 9 8.02 9 7 C7.02 7.33 5.04 7.66 3 8 C0 3.375 0 3.375 0 0 Z " fill="#2D79DF" transform="translate(728,184)"/>
<path d="M0 0 C1.98 0 3.96 0 6 0 C5.49202991 4.3177458 4.80317221 8.03302114 3 12 C2.34 12 1.68 12 1 12 C0.03929566 9.11788698 -0.10581883 7.30149956 -0.0625 4.3125 C-0.05347656 3.50425781 -0.04445313 2.69601562 -0.03515625 1.86328125 C-0.02355469 1.24839844 -0.01195312 0.63351563 0 0 Z " fill="#3680D5" transform="translate(526,255)"/>
<path d="M0 0 C0 0.66 0 1.32 0 2 C-2.90600261 3.25664978 -4.79604584 4 -8 4 C-8.12375 5.134375 -8.2475 6.26875 -8.375 7.4375 C-8.58125 8.613125 -8.7875 9.78875 -9 11 C-9.99 11.495 -9.99 11.495 -11 12 C-11.35555556 4.88888889 -11.35555556 4.88888889 -10 1.5 C-6.79687946 -0.9023404 -3.92653359 -0.25747761 0 0 Z " fill="#2D85F2" transform="translate(317,535)"/>
<path d="M0 0 C0.99 0.33 1.98 0.66 3 1 C3 1.66 3 2.32 3 3 C5.31 3.33 7.62 3.66 10 4 C9.67 5.32 9.34 6.64 9 8 C6.125 8.125 6.125 8.125 3 8 C0.4345406 5.4345406 0.45953913 3.52313332 0 0 Z " fill="#347BE0" transform="translate(344,597)"/>
<path d="M0 0 C0.33 0 0.66 0 1 0 C1.3690205 13.6332574 1.3690205 13.6332574 -1 20 C-1.33 20 -1.66 20 -2 20 C-2.19266055 6.96330275 -2.19266055 6.96330275 -1 1 C-0.67 0.67 -0.34 0.34 0 0 Z " fill="#3B7DC4" transform="translate(492,261)"/>
<path d="M0 0 C6.93 0.495 6.93 0.495 14 1 C10.45976076 3.36015949 6.36489861 6 2 6 C1.34 4.02 0.68 2.04 0 0 Z " fill="#2785E6" transform="translate(374,531)"/>
<path d="M0 0 C2.64 0 5.28 0 8 0 C6.47793991 2.62901288 5.15634036 4.84365964 3 7 C2.01 7 1.02 7 0 7 C0 4.69 0 2.38 0 0 Z " fill="#497EC1" transform="translate(259,530)"/>
<path d="M0 0 C3.76607955 1.25535985 4.26441793 2.52883585 6 6 C6 6.99 6 7.98 6 9 C4.02 9 2.04 9 0 9 C0 6.03 0 3.06 0 0 Z " fill="#2684E0" transform="translate(765,225)"/>
<path d="M0 0 C1.32 0 2.64 0 4 0 C4 2.64 4 5.28 4 8 C2.35 8 0.7 8 -1 8 C-1.04241723 5.66705225 -1.04092937 3.33297433 -1 1 C-0.67 0.67 -0.34 0.34 0 0 Z " fill="#2584E4" transform="translate(373,564)"/>
<path d="M0 0 C0.99 0.99 1.98 1.98 3 3 C1.02 4.98 -0.96 6.96 -3 9 C-3.99 8.67 -4.98 8.34 -6 8 C-4.55746343 4.63408134 -2.66735273 2.48952921 0 0 Z " fill="#1C7DEC" transform="translate(534,192)"/>
</svg>
